<?xml version="1.0" encoding="UTF-8" standalone="no"?>
<!-- Created with Inkscape (http://www.inkscape.org/) -->

<svg
   width="1920"
   height="785.61914"
   viewBox="0 0 1920 785.61914"
   version="1.1"
   id="svg5"
   xmlns:inkscape="http://www.inkscape.org/namespaces/inkscape"
   xmlns:sodipodi="http://sodipodi.sourceforge.net/DTD/sodipodi-0.dtd"
   xmlns="http://www.w3.org/2000/svg"
   xmlns:svg="http://www.w3.org/2000/svg">
  <sodipodi:namedview
     id="namedview7"
     pagecolor="#ffffff"
     bordercolor="#000000"
     borderopacity="0.25"
     inkscape:showpageshadow="2"
     inkscape:pageopacity="0.0"
     inkscape:pagecheckerboard="0"
     inkscape:deskcolor="#d1d1d1"
     inkscape:document-units="px"
     showgrid="false" />
  <defs
     id="defs2">
    <rect
       x="3.9790393e-13"
       y="764.80206"
       width="173.55051"
       height="764.80206"
       id="rect5493" />
    <rect
       x="368"
       y="330"
       width="414"
       height="162"
       id="rect5359" />
    <rect
       x="368"
       y="330"
       width="414"
       height="162"
       id="rect5359-8" />
    <rect
       x="368"
       y="330"
       width="414"
       height="162"
       id="rect5359-8-0" />
    <rect
       x="3.9790393e-13"
       y="764.80206"
       width="173.55051"
       height="764.80206"
       id="rect5493-5" />
  </defs>
  <g
     inkscape:label="Layer 1"
     inkscape:groupmode="layer"
     id="layer1"
     transform="translate(0,-131.76562)">
    <g
       aria-label="→"
       id="text1576"
       style="font-weight:600;font-size:144px;font-family:Inter;-inkscape-font-specification:'Inter Semi-Bold';stroke-width:2;stroke-opacity:0.75"
       transform="translate(406.51466,232.96417)">
      <path
         d="m 1464.1963,630.41602 -10.4062,-10.40625 15.8203,-15.82032 c 2.7187,-2.71875 6.0469,-5.67187 9.9844,-8.85937 3.9843,-3.1875 7.664,-6.07031 11.039,-8.64844 -2.5781,0.51563 -5.3672,0.98438 -8.3672,1.40625 -2.9531,0.42187 -5.7187,0.63281 -8.2968,0.63281 H -406.51466 V 573.60352 H 1473.9698 c 2.5312,0 5.2734,0.21094 8.2265,0.63281 3,0.42187 5.8125,0.86719 8.4375,1.33594 -3.375,-2.53125 -7.0078,-5.36719 -10.8984,-8.50782 -3.8906,-3.14062 -7.2656,-6.11718 -10.125,-8.92968 l -15.8906,-15.89063 10.4765,-10.40625 49.289,49.28906 z"
         id="path1686"
         sodipodi:nodetypes="ccscccsccsccsccccc" />
    </g>
    <path
       id="path4851"
       style="fill:#ffffff;fill-opacity:1;stroke:#000000;stroke-width:6.17528;stroke-dasharray:none;stroke-opacity:1"
       sodipodi:type="inkscape:offset"
       inkscape:radius="0"
       inkscape:original="M 1336.8086 798.54883 A 15.543093 15.543093 0 0 0 1321.2656 814.0918 A 15.543093 15.543093 0 0 0 1336.8086 829.63477 A 15.543093 15.543093 0 0 0 1352.3516 814.0918 A 15.543093 15.543093 0 0 0 1336.8086 798.54883 z "
       d="m 1336.8086,798.54883 a 15.543093,15.543093 0 0 0 -15.543,15.54297 15.543093,15.543093 0 0 0 15.543,15.54297 15.543093,15.543093 0 0 0 15.543,-15.54297 15.543093,15.543093 0 0 0 -15.543,-15.54297 z"
       transform="matrix(1.7273175,0,0,1.7273175,-972.28432,-592.1032)" />
    <path
       id="path4851-8"
       style="fill:#ffffff;fill-opacity:1;stroke:#000000;stroke-width:10.6667;stroke-dasharray:none;stroke-opacity:1"
       sodipodi:type="inkscape:offset"
       inkscape:radius="0"
       inkscape:original="M 1336.8086 798.54883 A 15.543093 15.543093 0 0 0 1321.2656 814.0918 A 15.543093 15.543093 0 0 0 1336.8086 829.63477 A 15.543093 15.543093 0 0 0 1352.3516 814.0918 A 15.543093 15.543093 0 0 0 1336.8086 798.54883 z "
       d="m 1336.8086,798.54883 a 15.543093,15.543093 0 0 0 -15.543,15.54297 15.543093,15.543093 0 0 0 15.543,15.54297 15.543093,15.543093 0 0 0 15.543,-15.54297 15.543093,15.543093 0 0 0 -15.543,-15.54297 z"
       transform="translate(-883.38841,-6.75e-4)" />
    <path
       id="path4851-1"
       style="fill:#ffffff;fill-opacity:1;stroke:#000000;stroke-width:10.6667;stroke-dasharray:none;stroke-opacity:1"
       sodipodi:type="inkscape:offset"
       inkscape:radius="0"
       inkscape:original="M 1336.8086 798.54883 A 15.543093 15.543093 0 0 0 1321.2656 814.0918 A 15.543093 15.543093 0 0 0 1336.8086 829.63477 A 15.543093 15.543093 0 0 0 1352.3516 814.0918 A 15.543093 15.543093 0 0 0 1336.8086 798.54883 z "
       d="m 1336.8086,798.54883 a 15.543093,15.543093 0 0 0 -15.543,15.54297 15.543093,15.543093 0 0 0 15.543,15.54297 15.543093,15.543093 0 0 0 15.543,-15.54297 15.543093,15.543093 0 0 0 -15.543,-15.54297 z"
       transform="translate(-1163.2581,-6.75e-4)" />
    <text
       xml:space="preserve"
       id="text5357"
       style="font-weight:600;font-size:72px;font-family:Inter;-inkscape-font-specification:'Inter Semi-Bold';white-space:pre;shape-inside:url(#rect5359);fill:#ffffff;fill-opacity:1;stroke:#000000;stroke-width:10.6667;stroke-dasharray:none;stroke-opacity:1"
       transform="translate(-270.80888,508)"><tspan
         x="368"
         y="396.64649"
         id="tspan5870"><tspan
           style="fill:#000000;stroke:none"
           id="tspan5868">1918</tspan></tspan></text>
    <text
       xml:space="preserve"
       id="text5357-8"
       style="font-weight:600;font-size:72px;font-family:Inter;-inkscape-font-specification:'Inter Semi-Bold';white-space:pre;shape-inside:url(#rect5359-8);fill:#ffffff;fill-opacity:1;stroke:#000000;stroke-width:10.6667;stroke-dasharray:none;stroke-opacity:1"
       transform="translate(9.060815,508)"><tspan
         x="368"
         y="396.64649"
         id="tspan5874"><tspan
           style="fill:#000000;stroke:none"
           id="tspan5872">1921</tspan></tspan></text>
    <text
       xml:space="preserve"
       id="text5357-8-3"
       style="font-weight:600;font-size:72px;font-family:Inter;-inkscape-font-specification:'Inter Semi-Bold';white-space:pre;shape-inside:url(#rect5359-8-0);fill:#ffffff;fill-opacity:1;stroke:#000000;stroke-width:10.6667;stroke-dasharray:none;stroke-opacity:1"
       transform="translate(893.87305,520)"><tspan
         x="368"
         y="396.64649"
         id="tspan5878"><tspan
           style="fill:#000000;stroke:none"
           id="tspan5876">1991</tspan></tspan></text>
    <text
       xml:space="preserve"
       id="text5491"
       style="font-weight:600;font-size:72px;font-family:Inter;-inkscape-font-specification:'Inter Semi-Bold';writing-mode:tb-rl;white-space:pre;shape-inside:url(#rect5493);fill:#000000;fill-opacity:1;stroke:none;stroke-width:10.6667;stroke-dasharray:none;stroke-opacity:1"
       transform="translate(-26.500282,-445.0918)"><tspan
         x="128.55078"
         y="764.80273"
         id="tspan5880">Imperio ruso</tspan></text>
    <text
       xml:space="preserve"
       id="text5491-2"
       style="font-weight:600;font-size:72px;line-height:1;font-family:Inter;-inkscape-font-specification:'Inter Semi-Bold';text-align:end;writing-mode:tb-rl;white-space:pre;shape-inside:url(#rect5493-5);fill:#000000;fill-opacity:1;stroke:none;stroke-width:10.6667;stroke-dasharray:none;stroke-opacity:1"
       transform="translate(223.00391,-773.18164)"
       x="0"
       y="628.52344"><tspan
         x="137.55078"
         y="899.67383"
         id="tspan5882">Republica Popular
</tspan><tspan
         x="65.550781"
         y="1137.3652"
         id="tspan5884"> de Ucrania</tspan></text>
    <text
       xml:space="preserve"
       style="font-weight:600;font-size:72px;line-height:1;font-family:Inter;-inkscape-font-specification:'Inter Semi-Bold';text-align:end;writing-mode:lr-tb;text-anchor:end;fill:#000000;fill-opacity:1;stroke:none;stroke-width:10.6667;stroke-dasharray:none;stroke-opacity:1"
       x="877.0354"
       y="691.99347"
       id="text5574"><tspan
         sodipodi:role="line"
         id="tspan5572"
         x="877.0354"
         y="691.99347"
         style="text-align:center;text-anchor:middle">Republica Social</tspan><tspan
         sodipodi:role="line"
         x="877.0354"
         y="763.99347"
         style="text-align:center;text-anchor:middle"
         id="tspan5576">Sovietica de Ucrania</tspan></text>
    <text
       xml:space="preserve"
       style="font-weight:600;font-size:72px;line-height:1;font-family:Inter;-inkscape-font-specification:'Inter Semi-Bold';text-align:end;writing-mode:lr-tb;text-anchor:end;fill:#000000;fill-opacity:1;stroke:none;stroke-width:10.6667;stroke-dasharray:none;stroke-opacity:1"
       x="1614.1305"
       y="763.513"
       id="text5574-4"
       inkscape:export-filename="text5574-4.svg"
       inkscape:export-xdpi="96"
       inkscape:export-ydpi="96"><tspan
         sodipodi:role="line"
         x="1614.1305"
         y="763.513"
         style="font-style:normal;font-variant:normal;font-weight:bold;font-stretch:normal;font-size:120px;font-family:Inter;-inkscape-font-specification:'Inter, Bold';font-variant-ligatures:normal;font-variant-caps:normal;font-variant-numeric:normal;font-variant-east-asian:normal;text-align:center;text-anchor:middle"
         id="tspan5576-3">Ucrania</tspan></text>
  </g>
</svg>
