<?xml version="1.0" encoding="UTF-8" standalone="no"?>
<!-- Creator: CorelDRAW -->

<svg
   xml:space="preserve"
   width="297mm"
   height="210mm"
   version="1.1"
   style="clip-rule:evenodd;fill-rule:evenodd;image-rendering:optimizeQuality;shape-rendering:geometricPrecision;text-rendering:geometricPrecision"
   viewBox="0 0 29700 21000"
   id="svg125"
   sodipodi:docname="vecinos.svg"
   inkscape:version="1.2.2 (732a01da63, 2022-12-09)"
   inkscape:export-filename="ukraine10.png"
   inkscape:export-xdpi="169.33334"
   inkscape:export-ydpi="169.33334"
   xmlns:inkscape="http://www.inkscape.org/namespaces/inkscape"
   xmlns:sodipodi="http://sodipodi.sourceforge.net/DTD/sodipodi-0.dtd"
   xmlns="http://www.w3.org/2000/svg"
   xmlns:svg="http://www.w3.org/2000/svg"><sodipodi:namedview
   id="namedview7710"
   pagecolor="#ffffff"
   bordercolor="#000000"
   borderopacity="0.25"
   inkscape:showpageshadow="2"
   inkscape:pageopacity="0.0"
   inkscape:pagecheckerboard="0"
   inkscape:deskcolor="#d1d1d1"
   inkscape:document-units="mm"
   showgrid="false"
   inkscape:zoom="0.7735518"
   inkscape:cx="371.01588"
   inkscape:cy="524.85173"
   inkscape:window-width="1858"
   inkscape:window-height="1057"
   inkscape:window-x="54"
   inkscape:window-y="-8"
   inkscape:window-maximized="1"
   inkscape:current-layer="Plan_x0020_1" />
 <defs
   id="defs4"><style
     type="text/css"
     id="style2">
   <![CDATA[
    .str1 {stroke:black;stroke-width:10;stroke-miterlimit:3.864;stroke-opacity:0.501961}
    .str6 {stroke:black;stroke-width:50;stroke-miterlimit:22.9256}
    .str3 {stroke:#434242;stroke-width:10;stroke-miterlimit:22.9256}
    .str0 {stroke:black;stroke-width:10;stroke-miterlimit:22.9256}
    .str5 {stroke:black;stroke-width:10;stroke-miterlimit:3.864}
    .str4 {stroke:#2B2A29;stroke-width:7.62;stroke-miterlimit:22.9256}
    .str2 {stroke:black;stroke-width:7.62;stroke-miterlimit:22.9256}
    .fil4 {fill:none}
    .fil1 {fill:#FEFEFE}
    .fil0 {fill:#FEFEFE}
    .fil5 {fill:#D9DADA}
    .fil8 {fill:#FEFEFE;fill-rule:nonzero}
    .fil7 {fill:#D9DADA;fill-rule:nonzero}
    .fil3 {fill:#434242;fill-rule:nonzero}
    .fil6 {fill:black;fill-rule:nonzero}
    .fil2 {fill:#FEFEFE;fill-rule:nonzero;fill-opacity:0.501961}
   ]]>
  </style></defs>
 <g
   id="Plan_x0020_1"
   inkscape:label="Plan 1">
  <metadata
   id="CorelCorpID_0Corel-Layer" />
  
  <path
   class="fil0 str0"
   d="m 1000,8495.9 v 0 l 57.14,51.27 c 59.71,21.27 63.09,34.23 100.87,74.27 30.49,32.31 37.67,56.34 97.56,26.74 15.7,-7.76 23.07,-18.42 44.23,-19.85 66.45,-4.48 16.98,17.17 87.5,47.4 44.38,19.02 46.55,7.4 83.25,38.59 42.92,36.49 -5.25,50.93 51.26,98.94 89.96,76.43 22.5,94.9 75.64,158.33 16.11,19.22 88.52,34.86 126.82,62.31 8.31,5.96 61.2,38.56 69.59,39.26 75.8,6.29 44.14,20.44 79.76,57.46 46.53,48.37 114.5,-24.47 190.59,56.37 16.49,17.51 3.4,32.79 56.79,45.21 59.53,13.84 95.03,17.13 154.74,25.46 17.78,2.48 24.26,33.44 47.55,35.75 v 0 c 5.47,-3.23 12.49,-4.92 18.76,-4.96 17.9,-0.1 60.85,-3.64 71.77,11.57 15.99,22.28 85.02,48.19 104.18,66.15 44.84,42.03 22.98,13.47 62.69,27.54 35.94,12.74 37.68,8.1 67.23,14.22 31.24,6.48 69.98,-7.4 88.92,12.67 23.84,25.24 16.23,69.55 54.43,6.75 -14.38,-39.07 -14.79,-45.68 -1.65,-86.27 33.06,-102.11 -55.32,-67.36 -72.76,-146.89 -11.61,-52.94 -134.36,-35.02 -117.98,-105.69 24.67,-106.34 -79.33,7.48 -28.77,-187.57 13.39,-51.67 4.78,-202.27 -10.35,-251.87 -14.33,-47 -12.19,-91.71 -20.26,-133.29 -7.1,-36.56 20.81,-111.36 -28.92,-110.37 -52.99,1.06 -48.03,-78.85 -48.38,-114.1 15.64,-34.77 41.22,-105.72 65.57,-133.52 54.36,-62.06 39.93,-103.74 107.49,-171.32 24.41,-24.4 69.14,-48.67 79.95,-65.58 21.3,-33.34 95.97,-151.09 125.1,-167.44 66.29,-37.22 26.07,-106.2 107.78,-135.18 41.98,-14.89 107.18,-129.53 132.57,-171.41 10.04,-16.55 73.68,-98.89 86.99,-111.5 21.95,-20.81 69.67,-99.54 82.35,-126.48 22.32,-47.45 95.96,-130.17 129.98,-174.34 33.92,-43.98 90.88,-92.17 134.65,-128.61 34.01,-28.32 39.41,-42.77 65.58,-71.62 37.17,-40.99 47.76,-78.77 95.35,-103.62 64.79,-33.84 73.17,-45.74 127.89,-86.41 39.25,-29.18 43.16,-97.63 104.18,-108.71 50.72,-9.21 48.33,-49.73 59.25,-89.87 25.3,-92.98 167.41,-97.71 245.17,-111.74 47.99,-8.66 125.83,-28.82 168.53,-30.47 37.68,-1.46 71.18,-42.24 74.27,-79.38 3.97,-47.72 27.37,-119.59 41.06,-167.45 22,-76.9 21.04,-58.9 28.4,-148.26 -2.94,-14.19 -5.5,-35.7 -6.62,-50.46 -2.63,-34.66 -19.31,-96.82 -16.11,-119.86 16.01,-115.56 -63.48,-85.83 -54.57,-121.38 14.97,-59.75 -14.32,-62.57 -65.58,-99.22 -61.95,-44.29 -22.53,-103.44 23.24,-141.55 15,-12.48 113.25,-28.04 135.37,-29.77 65.98,-5.16 35.6,-53.23 -0.42,-69.17 -57.55,-25.47 -46.09,-30.75 -87.79,-68.08 -16.66,-14.91 -48.85,-52.71 -54.72,-57.31 -90.88,-71.3 -69.74,-220.44 -111.22,-262.27 -48.07,-48.48 -47,-42.92 -89.01,-108.71 -29.25,-77.86 29.66,-101.59 -45.45,-156.81 -48.21,-35.45 -29.29,-14.43 -68.79,-63.84 -75.56,-94.49 -75.67,-42.67 -105.12,-168.95 -23.87,-102.32 -57.93,-73.93 -71.82,-110.37 -35.61,-93.41 46.53,-103.05 28.67,-211.67 -3.12,-18.98 -5.98,-103.49 -9.12,-108.43 -25.05,-39.51 -23.06,-37.55 -42.5,-92.1 v 0 c -34.34,-20.43 -59.8,-56.06 -73.12,-62.02 -65.52,-29.36 -45.57,-89.13 -41.48,-148.12 4.58,-65.99 -39.97,-96.63 -36.38,-133.66 5.94,-61.37 40.44,-26.4 6.76,-112.87 -6.3,-24.51 -3.57,-42.76 -0.43,-66.72 7.87,-59.95 44.72,-70.01 69.31,-104.13 55.4,-76.84 87.07,-57.2 40.26,-172.45 -21.92,-53.99 5.6,-86.76 1.79,-133.38 -7.14,-87.46 42.42,-85.01 41.2,-113.67 -3.6,-84.31 53.4,-124.26 39.27,-176.52 -15.07,-55.72 -20.13,0.32 -30.23,-109 -13.87,-3.1 -23.31,-11.07 -23.31,-26.83 0,-24.51 -14.98,-67.09 -42.99,-55.56 -4.87,2 -89.84,-4.36 -99.65,-28.11 -13.82,-33.45 -23.14,-14.63 -36.38,-67.52 -4.72,-18.89 -13.14,-19.37 -19.42,-56.79 -5.14,-30.68 -33.71,-6.13 -63.12,-13.75 -57.16,-14.82 -25.45,-43.52 -70.96,-39.97 -24.41,1.91 -34.74,-34.47 -76.07,-46.02 -31.41,-8.78 -50.01,-6.46 -85.85,-17.53 -43.58,-13.47 -89.82,3.6 -116.18,-62.55 -9.04,-22.69 -9.14,-8.64 -16.12,-42.71 -3.31,-16.2 -9.45,-47.24 -19.27,-57.31 -2.7,-2.77 -4.95,-5.89 -6.45,-8.45 5.77,-13.71 33.57,-40.8 41.86,-67.35 14.78,-47.31 38.22,-84.9 66.15,-126.1 20.87,-30.79 53.68,-65.21 73.19,-100.45 29.55,-53.4 53.08,-101.06 90.23,-151 26.81,-36.04 81.76,-70.92 100.74,-103.52 27.68,-47.57 43.15,-63.6 89.72,-94.68 79.47,-53.06 200.33,-97.31 294.35,-108.86 82.43,-10.13 63.75,-13.35 130.64,-54.01 47.93,-29.13 47.06,-35.97 84.33,-83.1 L 4312.55,1000 v 0"
   id="path9"
   style="stroke:#000000;stroke-opacity:0.75;stroke-width:52.91666681;stroke-dasharray:none" />
  <path
   class="fil0 str0"
   d="m 1000.32,8495.08 -0.32,0.82 57.14,51.27 c 59.71,21.27 63.09,34.23 100.87,74.27 30.49,32.31 37.67,56.34 97.56,26.74 15.7,-7.76 23.07,-18.42 44.23,-19.85 66.45,-4.48 16.98,17.17 87.5,47.4 44.38,19.02 46.55,7.4 83.25,38.59 42.92,36.49 -5.25,50.93 51.26,98.94 89.96,76.43 22.5,94.9 75.64,158.33 16.11,19.22 88.52,34.86 126.82,62.31 8.31,5.96 61.2,38.56 69.59,39.26 75.8,6.29 44.14,20.44 79.76,57.46 46.53,48.37 114.5,-24.47 190.59,56.37 16.49,17.51 3.4,32.79 56.79,45.21 59.53,13.84 95.03,17.13 154.74,25.46 17.78,2.48 24.26,33.44 47.55,35.75 v 0 c -1.75,39.33 0.65,83.24 1.65,124.02 0.8,32.54 -74.34,36.17 -112.44,101.3 -19.34,33.06 -34.8,68.44 -47.39,104.98 -4.29,12.45 -12.06,14.71 -18.19,39.98 -5.83,23.98 -20.63,36.73 -37.38,53.48 -67.71,67.71 11.77,102.08 -38.69,181.19 -58.62,91.9 21.45,150.66 -46.87,221.73 -75.63,78.69 -26.05,87.4 -153.65,146.75 -52.52,24.43 -64.24,45.73 -97.57,93.46 -9.51,13.62 -18.57,27.55 -28.25,41.05 -25.43,57.06 -27.6,140.29 -16.96,202.74 7.32,42.98 -19.92,70.26 -3.31,137.63 0.86,3.51 26.38,31.37 26.38,34.86 v 0 c -32.09,13.11 -75.87,28.52 -107.24,37.74 -33.4,9.83 -86.11,-10.53 -99.65,-4.96 -51.41,21.18 -108.5,24.19 -163.14,22.73 -29.89,-0.8 -105.26,55.11 -129.7,75.92 -24.86,21.18 -62.08,-14.12 -88.59,-22.44 -79.29,-24.91 -92.6,-64.16 -108.88,-144.43 l -53.1,-75.24 v 0"
   id="path11"
   style="stroke:#000000;stroke-opacity:0.75;stroke-width:52.91666681;stroke-dasharray:none" />
  <path
   class="fil0 str0"
   d="m 1000.32,18569.53 v 0 c 78.36,20.99 70.22,-0.37 124.02,-3.15 39.42,-2.03 47.82,20.32 98.09,23.15 8.36,0.47 38.46,11.42 58.59,13.79 63.51,7.5 113.87,19.37 180.39,20.94 12.04,0.28 50.09,23.8 55.14,39.68 9.87,31.01 9.65,17.73 16.53,54.71 6.56,35.21 52.29,94.07 73.99,122.8 25.17,33.31 61.33,112.44 120.29,94.4 84.11,-25.74 137.58,-191.34 184.41,-261.85 18.07,-27.22 23.16,-43.02 44.93,-71.24 37.98,-49.21 72.41,-68.94 122.08,-105.7 84.71,-62.7 204,-6.29 232.75,78.72 23.52,69.53 99.63,60.85 164.13,85 44.62,16.71 101.04,37.69 126.06,82.25 24.43,43.51 -29.25,125.55 -119.87,55.42 -40.89,-31.65 -97.22,-22.72 -135.32,9.36 -41.65,35.05 -13.64,142.62 -65.2,125.82 -34.13,-11.12 -68.15,-12.4 -91.37,20.83 -25.91,37.06 38.31,66.35 55.28,102.77 45.93,98.61 -27.14,76.42 73.47,194.04 57.96,67.75 202.89,35.93 182.42,99.36 -1.93,5.98 -6.93,11.91 -9.36,17.91 -20.32,50.21 -25.36,59.21 1.23,97.7 v 0 c 17.54,25.41 97.52,-30.75 157.52,93.69 11.07,22.97 88.31,57.62 111.51,63.69 43.36,11.34 38.52,55.62 160.69,76.22 71.55,12.07 144.79,43.19 104.84,129.63 -20.09,43.48 -77.7,55 -120.01,55 -45.85,0 -89.72,-12.67 -116.46,29.77 -10.65,16.92 -13.64,37.08 -20.26,55.96 v 0 m 4643.03,0.38 -4.13,0.3 c 69.44,-66.58 38.68,-35.81 99.08,-39.98 27.37,-1.88 88.15,-23.29 110.37,-39.82 15.9,-11.84 30.37,-13.72 52.77,-35.53 29.69,-28.93 86.17,-51.64 126.39,-33.93 48.29,21.25 113.19,-21.46 163.05,-26.46 30.17,-3.02 29.91,-9.32 69.69,-8.26 15.75,0.42 30.99,-2.33 52.4,-1.52 57.14,2.16 110.75,-28.07 170.7,-40.39 62.71,-12.89 77.99,16.21 161.69,-29.06 97.05,-52.48 31.45,-62.7 180.53,-85.05 23.07,-3.45 61.85,-2.39 76.73,-4.39 49.54,-6.66 57.54,-8.27 100.87,-8.27 11.05,0 57.68,3.79 64.49,9.79 42.78,37.72 12.42,46.98 99.64,31.98 41.86,-7.2 118.03,23.66 158.19,9.5 l 57.38,78.58 c 60.36,90.12 48.09,74.51 142.22,114.68 38.94,16.61 83.92,-19.86 162.06,5.62 48.95,15.96 76.51,-1.55 110.79,-39.41 21.63,-23.88 35.12,-32.25 69.46,-27.97 23.09,2.88 59.54,118.69 61.18,120.72 l 23.15,49.05 -1.86,0.01 m 1354.1,0.11 v -88.97 c 12.43,-63.68 -44.1,-83.47 -10.35,-125.82 63.53,-79.71 -22.76,-43.71 -0.8,-160.12 8.05,-42.65 -15.44,-80.89 -1.65,-107.06 24.28,-46.1 -69.68,-46.54 -83.11,-74.99 -9.07,-19.22 17.22,-39.63 33.07,-57.59 26.34,-29.84 18.65,-36.32 27.55,-51.55 39.65,-67.8 79.51,-82.43 119.63,-162.58 24.46,-48.88 55.86,-68.99 75.5,-104.88 17.05,-31.15 44.59,-58.65 63.55,-85.33 51.01,-71.77 60.75,-65.89 89.15,-156.53 -52.97,16.18 -39.95,13.03 -62.99,47.47 -8.68,12.98 -78.66,103.83 -88.06,108.06 -40.29,18.09 -23.4,-59.86 -9.92,-83.68 42.54,-75.18 0.36,-115.36 19.27,-138.9 15.06,-18.74 15.02,-28.93 40.26,-54.15 27.38,-27.37 33.02,-75.72 74.55,-84.2 4.39,-0.9 44.14,-39.49 65.34,-50.6 59.58,-31.21 38.83,7.56 87.22,2.65 6.56,-0.66 46.35,-19.56 42.71,-33.22 -2.23,-8.38 136.2,-130.69 153.65,-138.1 92.42,-39.28 91.76,-56.68 201.61,-70.69 18.11,-2.31 49.79,-12.46 62.84,-12.79 34.31,-3.16 117.99,-13.17 152.56,-21.93 13.81,-3.5 83.64,-3.5 103.75,-8.26 58.48,-13.85 100.71,-17.09 158.76,-22.59 15.69,-1.49 48.89,-21.05 47.95,-43.14 -0.89,-20.86 10.75,-43 9.92,-75.5 -0.86,-33.75 32.05,-125.41 29.77,-164.84 -0.33,-5.78 5.47,-33.52 4.96,-51.5 -1.55,-55.06 9.38,-211.44 38.56,-254.95 51.22,-76.38 -30.29,-76.84 -30.29,-180.81 0,-7.97 13.07,0.59 31.27,2.93 l -0.46,-0.06 c 3.25,-9.59 10.65,-18.69 9.75,-28.77 -0.8,-8.93 -5.92,-27.45 -4.54,-36.24 11.98,-76.34 9.1,-71.16 -13.23,-140.98 -10.59,-33.12 -32.46,-68.59 -43.55,-96.06 -10.86,-26.91 -22.96,-28.89 -39.55,-48.62 -44.2,-52.59 -50.72,-37.99 -98.94,-66.85 -41.06,-24.56 -54.5,-17.52 -90.52,-29.19 -32.55,-10.54 -106.69,-12.56 -120.35,-35.02 -12.87,-21.14 -65.53,-2.63 -83.62,6.9 -85.97,45.26 -80.77,-37.01 -147.74,23.15 -57.35,51.53 -57.39,44.53 -117.7,79.52 -35.29,20.48 -66.7,26.35 -94.11,42.42 -60.21,35.29 -125.47,43.21 -160.12,104.32 -48.27,85.11 -42.51,77.62 -110.09,33.36 -28.41,-18.61 -65.31,-66.66 -69.88,-69.45 -67.4,-41.06 -34.34,87.39 -76.21,90.66 -34.1,2.67 -16.29,-12.61 -32.51,10.22 -4.94,6.94 51.61,60.48 9.5,73.56 -104.33,32.42 -110.69,18.18 -226.55,7.03 -81.82,-7.87 -137.51,-47.07 -202.88,-82.82 -126.24,-69.06 -152.98,-36.66 -243.04,-161.06 -19.64,-27.14 -18.04,-27.56 -30.33,-57.08 -13.53,-32.51 -15.25,-76.28 -18.62,-84.47 -16.35,-39.63 4.55,-32.56 -53.35,-56.91 v 0 c -18.28,-7.69 -34.78,-19.74 -53.71,-25.64 -9.08,-2.83 -11.33,-3.37 -14.88,-12.38 -16.88,-42.81 -24.81,-48.64 -24.81,-100.92 0,-41.61 -21.14,-81.75 -63.83,-95.49 -36.3,-11.68 -32.72,-56.87 -20.36,-72.61 33.9,-43.13 41.51,-3.76 70.39,-65.86 8.77,-18.88 1.54,-209.95 0.57,-231.51 -0.89,-19.93 -24.2,-77.19 -34.58,-94.26 -79.3,-130.3 39.42,-190.05 -2.23,-291.47 -24,-58.44 -54.58,-103.57 -55.79,-169.9 -0.42,-23.34 16.92,-89.23 28.53,-107.63 19.78,-31.36 -27.25,-65.2 10.49,-137.96 39.98,-77.09 22.51,-70.89 -1.56,-143.44 -27.15,-81.81 64.75,-82.71 20.42,-125.25 -24.72,-23.73 27.05,-50.26 46.73,-54.15 64.83,-12.82 50.45,-69.23 49.18,-122.79 -1.75,-73.94 90.77,-109.6 92.6,-182.9 0.66,-26.74 -42.45,-92.42 -58.3,-108.71 -25.95,-26.65 -15.34,-105.25 -5.11,-136.69 12.14,-37.31 8.51,-52.32 15.03,-78.52 33.9,-136.25 -49.18,-170.2 -49.18,-250.41 0,-82.84 -18.37,-93.07 -57.88,-154.5 -61.42,-95.52 -78.1,-106.9 -77.72,-227.64 0.05,-15.55 -1.46,-31.05 -4.82,-46.3 -10.55,-47.94 -10.9,-79.97 -20.42,-123.88 -7.15,-33 -140.78,-113.45 -175.28,-129.13 -32.56,-14.81 -42.43,-31.07 -64.92,-46.87 -28.75,-20.2 -24.86,-29.3 -42,-45.59 -44.78,-42.58 -37.87,-63.87 -100.59,-92.31 -32.19,-14.59 -58.96,-72.73 -58.3,-107.5 1.59,-82.97 -44.45,-95.47 -60.76,-164.56 -8.86,-37.54 -26.25,-49.84 -59.96,-66.14 -101.93,-49.28 -147.05,-5.11 -158.75,-150.06 -0.1,-1.33 -1.33,-2.34 -1.79,-3.59 -10.4,-28.11 6.11,-63.77 -16.83,-87.93 -50.02,-52.65 42.63,-90.98 -22.72,-146.61 -90.2,-76.8 -143.96,8.6 -157.1,-121.28 -7.69,-76.1 -44.79,-117.2 -112.31,-150.44 -40.89,-20.14 -43.73,-50.59 -62.98,-75.11 -23.22,-29.56 -21.58,-51.16 -34.3,-73.62 -15.31,-27.06 -45.96,-42.5 -50.03,-77.29 -8.03,-68.66 40.94,-55.43 17.62,-121.15 -21.69,-61.1 -85.93,-73.13 -87.22,-109.28 -1.3,-36.69 1.72,-59.85 -4.82,-100.3 -1.18,-7.31 -4.85,-9.16 -9.49,-15.03 -21.79,-27.61 -6.49,-56.77 -53.21,-59.39 -44.01,-2.46 -26.49,-50.64 -12.14,-74.13 33.57,-54.96 -40.24,-36.75 -7.41,-79.8 16.63,-21.8 -2.3,-60.57 -42.62,-61.18 -44.96,-0.69 -33.37,-29.39 -58.68,-68.89 -21.4,-33.41 -11.69,-43.13 -15.97,-51.83 -16.87,-34.31 -57.64,-1.72 -53.49,-121.14 0.99,-28.72 -62.49,-59.77 -81.74,-58.96 -51.42,2.19 -68.74,-25.05 -68.74,-74.42 0,-101.48 -128.53,-40.58 -130.78,-109.28 -1.2,-36.76 -59.14,-49.64 -87.36,-52.92 -41.05,-4.77 -62.45,0.25 -101.82,7.99 -49.03,9.64 -36.58,-0.08 -60.38,-14.88 -7.07,-4.4 -24.23,1.1 -45.23,10.74 v 0 c -42.28,19.43 -100.14,55.72 -122.45,62.16 -35.62,10.28 -13.22,-18.05 -45.78,-0.29 -28.77,15.68 -39.18,22.6 -55.62,18.57 -54.27,14.5 -89.1,55.19 -154.07,44.99 -69.22,-10.86 -96.34,64.05 -96.34,122.37 0,96.96 -50.6,95.16 -80.89,143.59 -29.88,47.78 -67.71,69.67 -106.92,104.7 -96,85.79 -107.08,51.57 -217.2,80.79 -69,18.31 -61.79,-6.64 -144,34.73 -20.09,1.72 -35.41,1.65 -55.29,1.65 -134.28,0 -132.24,77.52 -272.8,51.26 -98.69,-18.44 -166.52,16.04 -260.62,18.05 -64.57,1.38 -130.43,13.99 -193.33,26.6 -35.97,7.21 -103.67,33.62 -137.63,21.79 -43.44,-15.14 -90.15,131.49 -104.37,161.77 -25.72,54.75 -60.47,130.2 -118.22,156.67 -99.52,45.62 -119.62,61.08 -234.67,68.36 -100.08,6.34 -72.86,24.06 -134.52,-59.25 -56.88,-76.85 -45.1,-143.99 -152.7,-169.23 -38.43,-9.02 -127.6,-47.64 -132.95,-93.46 -11.22,-95.99 -1.78,-32.79 -50.86,-121.38 -13.3,-10.46 -24.94,-17.29 -35.7,-31.27 -37.79,-49.1 -89.05,-6.43 -121.47,-16.61 -35.06,-11.01 -67.81,19.38 -97.22,-0.83 -47.92,-32.92 -82.39,40.36 -112.73,64.42 -60.76,48.19 -103.3,21.78 -155.16,37.21 -80.2,23.87 -65.55,22.64 -141.41,-3.38 -29.2,-10.01 -25.13,1.31 -62.94,-17.47 -26.94,-21.03 -33.24,-11.85 -51.69,-38.74 -21.23,-30.96 -135.39,-50.53 -172.22,-42.86 -57.08,11.89 -89.18,53.45 -137.3,44.94 -120.18,-21.25 -46.22,-68.4 -191.77,-72.34 -97.78,-2.64 -50.52,-54.82 -108.06,-48.24 -75.83,8.68 -36.41,-2.92 -84.76,-20.12 -81.31,-28.93 -53.68,19.49 -112.42,-18.94 -52.95,114.1 -88.68,78.49 -165.17,36.17 -64.48,-35.68 -63.15,-33.91 -124.41,-91.89 -17.07,-13.66 -60.61,-43.63 -67.94,-62.02 -17.63,-44.16 51.39,-67.34 -49.29,-73.38 -29.94,-1.79 -68.66,10.07 -85.96,-11.9 -21.25,-26.98 -44.48,-0.1 -54.85,21.76 -15.1,31.82 -16.72,42.55 -37.14,74.27 -38.39,59.62 -12.32,93.12 -91.09,132.65 -15.35,7.71 -82.14,4.27 -99.22,1.37 -25.8,-4.38 -40.66,-25.41 -52.78,-19.16 -40.45,20.87 -9.03,60.61 -24.74,85.03 -23.67,36.81 -24.11,19.88 -57.12,12.61 l -0.93,-0.83 c -9.11,42.67 -46.75,111.12 -82.33,134.44 -46.31,30.34 -44.48,15.2 -69.87,25.65 -71.12,29.28 -32.43,96.41 -36.81,107.06 -11.59,28.15 -39.34,36.73 -64.07,54.57 -28.09,23.99 -49.12,61.11 -76.21,74.7 -35.57,17.86 -129.35,7.81 -155.3,-25.37 -55.16,-70.54 -135.57,-72.13 -146.61,36.52 -8.02,78.88 -75.37,70.35 -132.86,71.25 -28.2,0.44 -64.11,-51 -99.36,22.21 -19.29,40.06 -46.84,53.34 -53.2,81.54 -15.14,67.21 -62.64,52.12 -70.68,94.55 -11.34,59.82 -27.16,131.01 -102.53,139.04 -86.77,9.25 -82.81,52.01 -133.8,114.11 -83.27,101.4 -13.37,136.85 -13.37,228.63 0,48.5 8.1,38.54 -31.42,80.6 -9.24,3.85 -47.87,17.71 -56.79,18.33 -84.49,5.94 -76.08,140.08 -108.44,189.6 -59.04,90.39 -35.89,63 -44.93,157.95 -10.42,109.35 -65.01,76.13 -67.8,116.98 -2.75,40.18 -9.02,49.12 -34.44,81.46 -22.69,28.86 -64.19,40.35 -70.68,54.14 -25.81,54.79 -53.33,52.26 -69.59,91.38 -8.52,20.47 -53.34,36.28 -33.08,69.17 24.66,40.04 20.42,56.68 7.84,104.04 l -55.68,61.18 v 0"
   id="path13"
   style="stroke:#000000;stroke-opacity:0.75;stroke-width:52.91666681;stroke-dasharray:none" />
  <path
   class="fil0 str0"
   d="m 1000.32,10665.9 v 0 l 53.1,75.24 c 16.28,80.27 29.59,119.52 108.88,144.43 26.51,8.32 63.73,43.62 88.59,22.44 24.44,-20.81 99.81,-76.72 129.7,-75.92 54.64,1.46 111.73,-1.55 163.14,-22.73 13.54,-5.57 66.25,14.79 99.65,4.96 31.37,-9.22 75.15,-24.63 107.24,-37.74 v 0 c 8.29,-9.15 15.48,-29.09 39.12,-35.16 12.45,-3.19 42.7,4.16 54.57,16.54 27.34,28.52 11.58,6.53 11.58,34.72 0,8.27 38.32,43.85 51.69,44.51 20.42,1.02 31.08,15.43 30.48,30.85 37.7,70.78 41.83,65.7 65.27,140.91 21.48,68.98 89.67,106.25 159.69,92.05 47.57,-9.65 133.9,-1.96 132.57,62.4 -0.84,40.81 69.14,29.06 64.5,171.28 -0.4,12.31 18.31,83.57 26.93,90.75 43.7,-7.16 16,12.6 57.14,7.21 22.4,-2.93 91.45,-60.17 109.99,-48.38 19.56,12.45 82.24,-27.89 139.72,12.57 39.92,28.11 1.41,56.39 61.18,70.96 5.55,21.72 6.02,23.22 13.49,40.8 13.04,30.69 -16.37,61.44 -21.71,88.75 -6.29,32.15 -11.85,48.42 12.19,76.82 15.51,18.32 28.02,18.71 42.38,31.49 l 1.86,1.66 -0.93,-0.83 c -9.11,42.67 -46.75,111.12 -82.33,134.44 -46.31,30.34 -44.48,15.2 -69.87,25.65 -71.12,29.28 -32.43,96.41 -36.81,107.06 -11.59,28.15 -39.34,36.73 -64.07,54.57 -28.09,23.99 -49.12,61.11 -76.21,74.7 -35.57,17.86 -129.35,7.81 -155.3,-25.37 -55.16,-70.54 -135.57,-72.13 -146.61,36.52 -8.02,78.88 -75.37,70.35 -132.86,71.25 -28.2,0.44 -64.11,-51 -99.36,22.21 -19.29,40.06 -46.84,53.34 -53.2,81.54 -15.14,67.21 -62.64,52.12 -70.68,94.55 -11.34,59.82 -27.16,131.01 -102.53,139.04 -86.77,9.25 -82.81,52.01 -133.8,114.11 -83.27,101.4 -13.37,136.85 -13.37,228.63 0,48.5 8.1,38.54 -31.42,80.6 -9.24,3.85 -47.87,17.71 -56.79,18.33 -84.49,5.94 -76.08,140.08 -108.44,189.6 -59.04,90.39 -35.89,63 -44.93,157.95 -10.42,109.35 -65.01,76.13 -67.8,116.98 -2.75,40.18 -9.02,49.12 -34.44,81.46 -22.69,28.86 -64.19,40.35 -70.68,54.14 -25.81,54.79 -53.33,52.26 -69.59,91.38 -8.52,20.47 -53.34,36.28 -33.08,69.17 24.66,40.04 20.42,56.68 7.84,104.04 l -55.68,61.18 v 0"
   id="path15"
   style="stroke:#000000;stroke-opacity:0.75;stroke-width:52.91666681;stroke-dasharray:none" />
  <path
   class="fil0 str0"
   d="m 10462.39,16944.28 c -18.28,-7.69 -34.78,-19.74 -53.71,-25.64 -9.08,-2.83 -11.33,-3.37 -14.88,-12.38 -16.88,-42.81 -24.81,-48.64 -24.81,-100.92 0,-41.61 -21.14,-81.75 -63.83,-95.49 -36.3,-11.68 -32.72,-56.87 -20.36,-72.61 33.9,-43.13 41.51,-3.76 70.39,-65.86 8.77,-18.88 1.54,-209.95 0.57,-231.51 -0.89,-19.93 -24.2,-77.19 -34.58,-94.26 -79.3,-130.3 39.42,-190.05 -2.23,-291.47 -24,-58.44 -54.58,-103.57 -55.79,-169.9 -0.42,-23.34 16.92,-89.23 28.53,-107.63 19.78,-31.36 -27.25,-65.2 10.49,-137.96 39.98,-77.09 22.51,-70.89 -1.56,-143.44 -27.15,-81.81 64.75,-82.71 20.42,-125.25 -24.72,-23.73 27.05,-50.26 46.73,-54.15 64.83,-12.82 50.45,-69.23 49.18,-122.79 -1.75,-73.94 90.77,-109.6 92.6,-182.9 0.66,-26.74 -42.45,-92.42 -58.3,-108.71 -25.95,-26.65 -15.34,-105.25 -5.11,-136.69 12.14,-37.31 8.51,-52.32 15.03,-78.52 33.9,-136.25 -49.18,-170.2 -49.18,-250.41 0,-82.84 -18.37,-93.07 -57.88,-154.5 -61.42,-95.52 -78.1,-106.9 -77.72,-227.64 0.05,-15.55 -1.46,-31.05 -4.82,-46.3 -10.55,-47.94 -10.9,-79.97 -20.42,-123.88 -7.15,-33 -140.78,-113.45 -175.28,-129.13 -32.56,-14.81 -42.43,-31.07 -64.92,-46.87 -28.75,-20.2 -24.86,-29.3 -42,-45.59 -44.78,-42.58 -37.87,-63.87 -100.59,-92.31 -32.19,-14.59 -58.96,-72.73 -58.3,-107.5 1.59,-82.97 -44.45,-95.47 -60.76,-164.56 -8.86,-37.54 -26.25,-49.84 -59.96,-66.14 -101.93,-49.28 -147.05,-5.11 -158.75,-150.06 -0.1,-1.33 -1.33,-2.34 -1.79,-3.59 -10.4,-28.11 6.11,-63.77 -16.83,-87.93 -50.02,-52.65 42.63,-90.98 -22.72,-146.61 -90.2,-76.8 -143.96,8.6 -157.1,-121.28 -7.69,-76.1 -44.79,-117.2 -112.31,-150.44 -40.89,-20.14 -43.73,-50.59 -62.98,-75.11 -23.22,-29.56 -21.58,-51.16 -34.3,-73.62 -15.31,-27.06 -45.96,-42.5 -50.03,-77.29 -8.03,-68.66 40.94,-55.43 17.62,-121.15 -21.69,-61.1 -85.93,-73.13 -87.22,-109.28 -1.3,-36.69 1.72,-59.85 -4.82,-100.3 -1.18,-7.31 -4.85,-9.16 -9.49,-15.03 -21.79,-27.61 -6.49,-56.77 -53.21,-59.39 -44.01,-2.46 -26.49,-50.64 -12.14,-74.13 33.57,-54.96 -40.24,-36.75 -7.41,-79.8 16.63,-21.8 -2.3,-60.57 -42.62,-61.18 -44.96,-0.69 -33.37,-29.39 -58.68,-68.89 -21.4,-33.41 -11.69,-43.13 -15.97,-51.83 -16.87,-34.31 -57.64,-1.72 -53.49,-121.14 0.99,-28.72 -62.49,-59.77 -81.74,-58.96 -51.42,2.19 -68.74,-25.05 -68.74,-74.42 0,-101.48 -128.53,-40.58 -130.78,-109.28 -1.2,-36.76 -59.14,-49.64 -87.36,-52.92 -41.05,-4.77 -62.45,0.25 -101.82,7.99 -49.03,9.64 -36.58,-0.08 -60.38,-14.88 -7.07,-4.4 -24.23,1.1 -45.23,10.74 v 0 c 15.45,-48.62 21.18,-57.11 37.54,-99.05 10.5,-26.92 16.25,-126.91 73.33,-71.77 149.51,144.45 186.59,42.97 136.83,-7.18 -32.38,-32.65 -20.93,-40.85 -74.56,-81.98 -16.93,-12.98 -52.76,-79.06 -38.17,-78.43 50.14,2.15 197.38,-54.99 231.65,14.32 25.75,52.09 56.69,56.67 108.06,69.6 51.45,12.94 85.54,-2.21 110.36,-46.55 21.19,-37.83 -35,-60.08 -1.79,-70.44 31.94,-9.96 97.43,-0.2 113.02,33.5 12.38,26.78 38.44,75.67 72.19,54.28 68.11,-43.14 45.47,17.87 152.66,1.66 91.76,-13.88 14.16,-53.71 95.96,-124.03 35.45,-30.47 54.61,4.45 75.07,29.63 55.68,68.5 82.04,-4.48 128.33,-43.99 10.75,-9.17 47.82,-56.38 56.46,-67.48 32.63,24.42 28.75,-4.98 56.74,-33 44.22,-44.27 45.58,60.32 71.11,77.72 32.73,22.31 24.85,32.77 78.29,15.97 51.03,-16.03 46.42,-14.88 97.14,-20.79 27.12,-3.16 58.54,-6.71 80.89,8.13 10.63,7.06 25.62,54.56 35.96,64.91 23.05,23.05 58.09,19.12 70.16,64.07 7.12,26.5 46.86,72.14 68.74,87.64 34.3,24.32 22.94,42 89.72,49.61 66.78,7.62 70.87,-10.11 130.78,12.95 57.64,22.19 -0.77,96.61 46.02,181.33 35.73,64.68 86.89,-80.66 130.5,-1.88 17.59,31.78 -5.6,122.27 108.34,40.2 40.35,-29.07 196.32,-101.84 159.84,20.84 -10.83,36.45 -135.98,177.43 -44.65,178.45 44.04,0.49 133.99,-129.72 148.54,-46.16 4.36,25.06 -26.56,179.74 38.89,153.08 5.77,-2.35 19.09,-20.02 34.75,-37.72 8.11,-55.09 15.65,-86.13 46.84,-127.03 27.19,-35.64 33.7,-35.33 75.64,-9.63 49.93,30.59 79.54,-0.03 120.34,43.27 9.25,9.83 59.12,29.22 71.91,29.06 58.18,-0.71 89.61,-8.82 146.52,13.23 55.08,21.35 -3.86,105.25 30.28,132.29 83.6,66.21 1.29,69.86 72.1,112.59 31.14,18.8 3.33,91.99 86.79,89.16 21.3,-0.72 7.94,16.38 73.05,3.73 64.88,-12.6 58.71,1.41 132.86,-32.27 115.52,-52.47 98.04,-7.67 103.61,79.8 0.77,12.06 6.81,73.4 12.94,79.1 29.43,27.29 170.32,14.21 104.19,79.93 -5.94,5.91 -70.33,107.05 -51.27,110.09 23.5,3.75 58.83,-1.01 64.5,43.56 0.85,6.7 1.52,5.08 -1.23,11.44 -24.02,98.78 -14.27,59.17 -62.98,126.1 -32.07,44.05 42.73,70.59 -1.09,183.79 -15.39,39.73 -42.34,84.78 -29.62,128.32 12.01,41.13 -93.46,105.49 -10.63,165.51 57.59,41.73 -19.62,75.07 23.29,158.75 11.12,21.68 30.43,-38.62 52.77,-3.88 28.4,44.17 62.71,-55.27 109.01,4.4 27.18,35.03 -0.08,110.49 58.58,118.82 87.79,12.48 13.05,85.71 85.33,132.58 56.68,36.76 98.54,-20.73 115.28,-70.82 19.71,-59.01 116.55,-79.54 119.63,-15.45 1.64,34.16 8.36,51.31 15.03,82.25 25.33,153.38 9.7,76.84 -43.57,145.53 -22.81,29.41 7.19,46.95 7.19,92.88 0,43.99 -6.03,61.81 -1.52,107.21 5.9,59.39 -110.32,64.96 -42.85,132.43 18.2,18.21 143.94,-72.56 114.39,17.62 -18.22,55.6 16.89,35.99 -16.82,111.36 -19.54,43.67 8.62,72.76 -3.17,127.9 -19.98,93.37 48.23,11.09 80.46,77.87 31.99,66.28 97.67,-26.52 116.47,86.93 20.58,124.26 158.02,-19.21 208.73,19.28 25.92,19.67 -6.03,118.94 59.68,90.15 28.43,-12.46 113,-19.63 67.7,29.2 -22.66,24.42 -30.75,52.31 -30.75,84.47 22.28,72.25 30.95,119.69 16.96,193.24 -7.06,37.08 10.52,73.67 1.65,110.46 -13.07,54.26 32.94,80.98 -7.61,139.05 -12.02,17.21 -87.11,39.59 -105.59,46.95 49.13,120.93 35.46,56.31 127.33,102.52 34.85,17.52 -38.13,77.4 82.26,85.85 63.04,4.43 -4.33,69.01 82.03,50.84 21.58,-4.54 94.13,12.49 100.3,41.91 -23.97,20.84 -60.43,67.74 -94.06,44.3 -41.43,-28.88 -46.28,21.49 -108.85,0.82 -26.72,-8.82 -19.75,-7.39 -49.31,-6.89 -28.83,0.49 -48.95,-34.42 -98.51,14.55 -42.58,42.06 -73.88,62.73 -127.33,21.54 -9.09,-7 -10.21,-27.06 -21.64,-38.86 -13.8,-14.24 -24.15,-33.94 -29.49,-52.63 -7.77,-27.23 -17.05,-42.27 -29.08,-66.48 -6.92,-13.94 -0.27,-20.5 -20.45,-28.82 -2.2,-0.9 -1.13,-1.84 -4.28,-2.27 -1.14,1.67 -32.65,58.61 -43.82,63.38 -52.1,22.21 -79.74,-25.57 -74.27,60.67 3.15,49.63 -10.72,112.6 -69.74,120 -22.45,2.82 -72.53,-95.93 -90.95,-112.59 -48.21,-43.6 -48.25,-18.92 -74.27,-35.15 -2.66,-1.65 -30.21,-89.39 -42.43,-105.69 -9.54,-12.73 -2.25,-37.8 -43.7,-41.2 -65.36,-5.36 -36.84,129.43 -71.11,124.31 -7.39,-1.1 -43.59,-104.49 -64.49,-117.12 -17.81,-10.77 -23.99,39.47 -42.86,64.49 -21.29,28.23 20.88,72.56 -27.68,87.78 -40.19,12.59 -28.81,-7.49 -59.16,38.03 -22.18,33.28 -92.63,30.5 -65.72,-16.53 13.6,-23.76 25.47,-63.31 12.43,-90.01 -12.84,-26.29 42.58,-35.26 16.53,-92.17 -11.88,-25.97 16.16,-105.1 -54.99,-120.72 -45.83,-10.07 -30.48,80.24 -108.72,67.94 -14.82,-2.33 -38.31,6.26 -51.69,12.8 -27.48,10.34 -124.39,31.42 -103.61,77.16 5.37,11.81 -34.96,0.81 -65.49,22.06 -55.61,38.71 -41.7,25.42 -20.64,99.36 12.57,44.17 21.24,84.56 37.04,127.19 34.38,92.73 -9.14,70.46 -16.11,154.87 -6.44,77.9 198.43,133.53 106.12,230.43 -26.76,28.09 -142.14,131.79 -122.8,172.12 15.18,31.65 72.65,20.51 63.12,100.73 -23.19,32.78 -36.01,59.57 -79.23,56.37 -47.82,-3.54 -48.94,8.16 -91.76,39.12 -87.45,63.24 -147.17,19.6 -176.27,54.99 -5.16,6.28 18.75,62.28 22.06,82.03 6.54,39.03 38.07,188.72 -22.06,197.86 -46.31,7.05 -76.07,-0.34 -76.07,67.24 0,96.15 -77.16,15.98 -108.29,60.9 -19.73,28.47 -43.74,-5.48 -65.35,48.1 -35.38,87.73 -90.6,-69.06 -97.42,70.16 -1.89,38.62 -59.94,75.73 -21.78,95.34 39.13,20.11 41.9,63.33 53.2,101.16 3.13,10.49 4.63,23.78 6.47,34.58 -37.86,65.84 -40.12,26.95 -60.47,52.63 -19.43,24.52 77.54,167.68 -53.63,182.33 -21.98,2.46 -61.13,-9.01 -68.22,-36.28 -8.35,-32.09 -43.77,-69.78 -81.41,-53.16 -48.38,21.37 -131.84,-44.67 -174.92,55.66 -4.71,10.97 -5.14,63.28 -5.14,76.48 z"
   id="path17"
   style="stroke:#000000;stroke-opacity:0.75;stroke-width:52.91666681;stroke-dasharray:none" />
  <path
   class="fil0 str0"
   d="m 1000.32,18569.53 v 0 c 78.36,20.99 70.22,-0.37 124.02,-3.15 39.42,-2.03 47.82,20.32 98.09,23.15 8.36,0.47 38.46,11.42 58.59,13.79 63.51,7.5 113.87,19.37 180.39,20.94 12.04,0.28 50.09,23.8 55.14,39.68 9.87,31.01 9.65,17.73 16.53,54.71 6.56,35.21 52.29,94.07 73.99,122.8 25.17,33.31 61.33,112.44 120.29,94.4 84.11,-25.74 137.58,-191.34 184.41,-261.85 18.07,-27.22 23.16,-43.02 44.93,-71.24 37.98,-49.21 72.41,-68.94 122.08,-105.7 84.71,-62.7 204,-6.29 232.75,78.72 23.52,69.53 99.63,60.85 164.13,85 44.62,16.71 101.04,37.69 126.06,82.25 24.43,43.51 -29.25,125.55 -119.87,55.42 -40.89,-31.65 -97.22,-22.72 -135.32,9.36 -41.65,35.05 -13.64,142.62 -65.2,125.82 -34.13,-11.12 -68.15,-12.4 -91.37,20.83 -25.91,37.06 38.31,66.35 55.28,102.77 45.93,98.61 -27.14,76.42 73.47,194.04 57.96,67.75 202.89,35.93 182.42,99.36 -1.93,5.98 -6.93,11.91 -9.36,17.91 -20.32,50.21 -25.36,59.21 1.23,97.7 v 0"
   id="path19"
   style="stroke:#000000;stroke-width:52.9167;stroke-dasharray:none;stroke-opacity:0.75"
   sodipodi:nodetypes="cscsccccccccccssccscccscsc" />
  <path
   class="fil0 str0"
   d="m 2440.42,19497.23 52.58,-30.99 v 0 c 17.54,25.41 97.52,-30.75 157.52,93.69 11.07,22.97 88.31,57.62 111.51,63.69 43.36,11.34 38.52,55.62 160.69,76.22 71.55,12.07 144.79,43.19 104.84,129.63 -20.09,43.48 -77.7,55 -120.01,55 -45.85,0 -89.72,-12.67 -116.46,29.77 -10.65,16.92 -13.64,37.08 -20.26,55.96 v 0"
   id="path21"
   style="stroke:#000000;stroke-width:52.9167;stroke-dasharray:none;stroke-opacity:0.75"
   sodipodi:nodetypes="ccsccccscsc" />
  <path
   class="fil0 str0"
   d="m 7413.86,19970.58 -4.13,0.3 c 69.44,-66.58 38.68,-35.81 99.08,-39.98 27.37,-1.88 88.15,-23.29 110.37,-39.82 15.9,-11.84 30.37,-13.72 52.77,-35.53 29.69,-28.93 86.17,-51.64 126.39,-33.93 48.29,21.25 113.19,-21.46 163.05,-26.46 30.17,-3.02 29.91,-9.32 69.69,-8.26 15.75,0.42 30.99,-2.33 52.4,-1.52 57.14,2.16 110.75,-28.07 170.7,-40.39 62.71,-12.89 77.99,16.21 161.69,-29.06 97.05,-52.48 31.45,-62.7 180.53,-85.05 23.07,-3.45 61.85,-2.39 76.73,-4.39 49.54,-6.66 57.54,-8.27 100.87,-8.27 11.05,0 57.68,3.79 64.49,9.79 42.78,37.72 12.42,46.98 99.64,31.98 41.86,-7.2 118.03,23.66 158.19,9.5 l 57.38,78.58 c 60.36,90.12 48.09,74.51 142.22,114.68 38.94,16.61 83.92,-19.86 162.06,5.62 48.95,15.96 76.51,-1.55 110.79,-39.41 21.63,-23.88 35.12,-32.25 69.46,-27.97 23.09,2.88 59.54,118.69 61.18,120.72 l 23.15,49.05 -1.86,0.01"
   id="path23"
   style="stroke:#000000;stroke-opacity:0.75;stroke-width:52.91666681;stroke-dasharray:none" />
  <path
   class="fil0 str0"
   d="m 15245.64,1000 -54.57,46.82 c -30.04,83.08 4.24,54.3 21.49,109.28 11.71,37.35 25.13,18.54 23.16,82.97 -1.61,52.6 50.98,84.09 90.38,107.2 15.5,9.09 56.72,27.49 33.78,51.26 -6.25,6.49 -39.2,8.1 -71.25,36.38 -18.14,16.02 -29.75,40.2 -23.57,65.73 2.29,9.47 89.39,63.27 43.56,82.54 -0.39,0.16 -97.24,-18.81 -60.11,36.8 33.27,49.83 34.22,26.36 56.66,47.96 14.85,14.3 -25.05,31.57 19.18,70.96 15,13.36 -9.83,63.46 2.32,101.02 -17.61,61.54 -24.25,54.72 -37.61,92.6 -17.73,50.24 59.29,67.05 88.87,94.4 31.81,29.42 51.97,9.35 46.16,70.4 -2.79,29.33 -2.21,81.23 4.68,109.28 19.03,77.51 27.6,17.94 86.55,52.77 50.48,29.82 20.67,60.58 36.81,119.92 1.92,7.09 17.32,42.94 19.5,50.64 v 0 c 72.89,27.84 37.67,2.06 88.3,12.81 36.3,7.7 48.9,2.65 80.37,28.53 17,13.98 76.76,0.22 36.24,71.82 -30.26,53.46 75.34,25.01 96.15,27.83 78.93,10.68 117.28,68.39 200.8,-7.85 19.08,-17.42 121.73,-67.56 152.7,-86.41 38.37,-23.36 105.24,-66.43 129.27,-103.38 45.33,-69.71 38.12,-87.74 -4.96,-155.01 -30.16,-47.09 52.47,-27.69 66.57,-110.66 5.91,-34.78 -19.35,-63.86 0.81,-135.31 7.78,-27.6 21.27,-67.1 53.9,-75.55 19.98,-5.18 -0.52,56.19 87.36,40.82 32.79,-5.73 132.86,24.1 159.13,42.14 18.12,12.45 81.59,49.04 101.87,59.96 65.96,44.09 51.22,40.04 112.87,38.04 42.79,-1.39 4.96,32.55 101.16,-1.23 137.51,-48.3 59.21,97.34 168.67,9.06 51.53,-41.55 46.88,-40.31 107.58,-61.97 37.51,-13.39 58.05,-95.83 114.96,-70.31 26.85,12.03 83.06,-45.31 97.42,-65.3 13.97,-19.46 52.78,-72.08 78.29,-50.46 6.03,5.12 86.8,33.5 96.57,33.5 66.34,0 37.69,-2.1 100.07,-23.29 33.58,-11.41 64,0.55 79.52,31.56 31,61.93 125.32,-68.97 146.32,-18.19 4.32,10.44 -53.02,91.29 28.54,102.24 26.85,3.6 121.32,-61.3 158.47,-70.39 91.39,-22.39 177.54,-30.2 272.33,-30.2 70,0 -35.17,89.4 77.01,87.65 25.5,-0.4 64.21,33.49 69.6,63.11 2.52,13.87 33.37,96.82 37.61,102.39 10.45,13.74 16.21,18.21 31.56,26.32 55.24,54.37 19.45,35.53 43,61.18 20.47,22.31 56.16,-8.48 89.72,96.58 12.8,40.08 80.87,77.44 45.87,124.16 -14.76,19.72 -34.22,126.9 -27.02,146.94 14.55,40.47 38.36,25.23 41.77,93.98 2.95,59.49 40.93,-9.25 59.1,80.18 10.17,50 33.21,11.77 83.54,67.13 33.87,37.27 23.2,20.51 40.91,66.43 21.03,54.52 8.74,94.86 78.53,93.55 59.16,-1.11 70.43,38.59 117.55,61.18 60.67,29.1 54.68,58.25 48.8,117.41 20.71,55.71 90.62,184.62 -19.98,196.36 -21.26,2.26 -86.46,7.1 -100.87,20.27 -26.82,24.5 -351.41,63.28 -324.4,102.67 0.61,0.9 45.61,24 52.21,29.06 91.66,70.25 35.5,57.25 49.37,105.17 10.93,37.79 126.74,37.71 112.59,98.79 -11.84,51.08 66.64,98.66 50.27,156.81 -14.25,50.64 -74.81,155.55 -59.11,196.65 12.85,33.61 105.53,94.57 134.45,119.09 -6.03,6.92 -10.34,16.81 -19.21,37.64 -20.47,48.08 -12.48,78.18 -71.1,99.22 -36.18,12.98 -51.31,36.42 -63.27,57.91 165.15,142.34 132.4,43 214.33,17.91 4.52,-1.39 65.57,9.09 73.89,16.4 32.98,28.97 86.91,13.67 124.97,3.44 32.52,-8.73 15.58,68.95 118.21,24.95 22.33,-9.57 95.42,-22.99 98.56,14.88 3.5,42.25 26.9,126.44 70.82,144.52 45.9,18.9 54.74,-28.1 122,0.57 49.97,21.31 98.6,-67.42 150.43,-56.78 61.34,12.58 98.75,-101.71 141.41,-35.39 32.79,50.96 101.21,-21.53 129.7,-27.6 90.85,-19.34 33.72,113.52 45.59,154.36 10.15,34.91 91.03,81.49 77.29,143.87 -18.59,84.47 5.77,106.34 94.46,91.09 l 20.08,-3.45 c 13.23,-2.51 111.42,-32.83 129.4,-9.92 19.67,25.05 100.56,58.26 40.5,102.53 -29.33,21.61 -102.93,15.84 -51.93,72.33 10.36,11.48 -48.51,114.55 27.55,135.46 75.47,20.76 8.48,55.64 34.29,129.41 14.57,41.64 52.67,7.54 37.24,114.9 -14.33,99.66 134.19,38.77 85.56,138.25 -33.39,134.15 30.54,107.25 13.23,203.68 -3.93,21.9 -38.74,-1.57 -77.15,27.4 -26.96,20.34 -67.29,35.47 -27.17,62.7 56.56,38.39 -76.07,68.63 23.29,172.69 52.64,55.13 42.75,183.96 141.51,194.99 60.84,6.8 89.65,14.58 88.35,76.63 -0.43,20.81 26.07,117.3 36.38,126.77 50.74,51.03 56.89,35.98 116.04,51.83 32.39,8.67 70.42,1.5 84.49,-31.42 28.53,-66.81 41.18,-56.6 78.8,-109.14 30.55,-42.68 15.69,9.26 79.66,-10.06 52.1,-15.75 107.62,-38.02 160.68,-39.98 31.99,-1.18 46.11,-11.11 89.87,-10.06 86.34,2.06 107.58,-12.92 181.48,42.19 18.21,13.58 9.59,69.44 77.86,101.01 45.17,20.9 58.64,72.65 80.04,116.94 35.4,73.29 88.65,104.78 162.48,54.05 13.77,-9.46 71.35,-45.82 83.53,-30.99 30.75,37.43 47.85,19.34 89.11,39.26 35.2,16.99 123.34,9.92 112.07,70.54 -13,69.98 23.87,41.85 57.88,81.45 40.72,47.41 85.56,-2.9 100.97,-46.82 18.64,-53.12 146.68,-105.08 195.41,-136.17 19.61,-12.51 53.91,-41.14 75.27,-41.76 62.47,-20.36 83.16,-19.07 141.36,-31 41.73,-8.55 94.22,-4.61 142.64,-12.57 99.48,-16.35 72.92,5.63 173.21,-40.34 77.26,-35.41 152.63,-25.61 186.2,-114.11 10.88,-28.67 22.01,2.11 43.43,-5.38 26.26,-9.18 164.63,-64.15 174.71,-62.84 22.37,2.91 -79.42,98.36 16.11,167.02 39.73,28.55 27.27,133.63 132.2,130.64 65.46,-1.87 56.75,63.56 56.75,113.67 0,42.77 -13.01,102.89 -7.19,136.45 4.45,25.65 55.77,90.07 71.25,120.15 3.99,7.75 11.57,17.79 16.97,24.95 5.75,9.78 40.2,81.86 50.83,92.18 34.95,33.92 140.48,43.26 190.6,66.57 30.37,14.12 10.04,30.89 57.45,62.7 59.95,40.21 100.94,123.29 137.11,148.83 9.25,6.52 46.05,42.65 47.01,56.93 2.9,42.88 -4.74,93.07 61.62,58.96 64.86,-33.34 106.08,21.73 195.13,-76.49 10.48,-11.56 -9.13,-26.76 -10.35,-58.69 -2.7,-70.89 -2.67,-105.79 -17.1,-175.99 -9.9,-48.12 25.25,-11.29 51.68,-11.29 53.19,0 147.24,-45.24 173.21,-19.98 10.04,9.76 -7.92,62.7 28.11,103.09 24.4,27.34 32.37,135.55 112.08,83.49 111.18,-72.63 50.34,125.65 170.56,72.61 60.75,-26.8 53.91,-25.89 117.98,-25.89 72.59,-15.6 35.52,-24.04 75.64,-48.38 1.68,-1.02 22.98,33.97 15.73,57.07 -9.66,30.82 8.35,96.26 43,104.18 35.46,8.12 5.78,60.02 101.82,81.69 56.44,12.74 38.96,35.73 95.53,33.5 97.75,-3.86 24.69,41.69 88.31,135.6 51.02,75.31 58.66,-22.69 120.85,-1.51 60.34,20.54 93.68,-55.12 156.82,-73.99 25.52,-7.63 80.1,-103.14 114.24,-49.61 15.77,24.72 -0.63,31.56 34.73,72.61 42.1,48.88 29.51,25.77 32.93,90.24 2.09,39.41 69.63,85.33 99.36,106.69 33.85,24.32 114.15,-8.25 145.52,-23.57 84.75,-13.84 52.48,-4.86 97.57,16.25 62.2,29.11 61.13,12.64 107.77,21.64 43.53,8.4 24.61,101.65 83.63,156.81 37.75,35.29 53.47,78.09 82.97,117.56 3.55,4.75 72.79,34.97 92.74,49.46 60.32,43.81 85.92,60.79 163,63.4 79.49,2.69 124.1,-88.64 161.26,-74.97 38.2,14.04 74.13,-14.89 127.47,-12.81 42.46,1.65 102.19,-45.01 115.9,-9.5 16.44,42.61 77.42,73.33 6.61,115.9 -26.89,16.17 -39.45,33.12 -76.11,51.4 -29.86,14.89 -66.25,42.83 -68.18,78.53 -0.61,11.33 -1.31,33.38 -3.31,43.14 3.62,88.09 11.18,83.34 49.18,145.52 15.34,25.09 100.53,73.89 127.9,97.7 43.17,37.55 75.5,24.92 41.64,106.55 -30.07,72.47 64.73,46.82 29.33,138.05 -16.13,41.58 -73.28,-2.52 -116.18,56.37 -12.84,17.63 -13.68,30.89 -29.34,54.71 -47.67,72.52 -73.83,-10.74 -162.91,139.05 -28.36,47.68 -47.19,90.97 -72.33,137.25 -31.5,57.96 -106.24,12.78 -155.45,61.99 -63.5,63.5 -253.38,-28.11 -234.96,79.37 1.65,9.6 3.07,14.97 3.88,25.23 35.36,55.92 31.02,60.22 82.82,73.19 80.56,20.16 49.41,141.11 134.23,144.96 41.44,1.88 115.55,44.05 152.7,61.46 68.84,32.27 108.71,-130.48 146.05,-86.93 23.02,26.85 29.01,59.75 36.24,94.35 5.73,27.48 -47.37,91.27 -56.38,118.12 -8.59,25.64 -37.51,59.37 -70.96,43.8 -36.65,-17.07 -54.75,-28.57 -97.8,-34.96 -28.35,-4.21 -199.3,-73.48 -178.65,-3.22 22.85,77.71 -24.99,68.04 -37.6,84.76 -10.36,13.73 -41.58,65.32 -41.2,82.59 0.74,33.74 -3.9,20.53 7.18,52.2 15.67,44.81 -25.45,70.02 -34.06,114.54 -3.9,20.1 -19.53,54.27 -22.73,73.7 l -10.82,96.19 c 56.52,-2.82 231.56,-24.36 238.26,59.54 3.23,40.54 7.63,42.2 -7.98,84.47 -4.14,11.2 23.84,54.83 15.69,72.62 -15.86,34.66 42.43,73.8 55.56,100.87 21.31,43.9 -21.17,42.24 44.6,108.01 9.79,9.79 16.96,28.91 29.25,30.9 -29.25,53.53 -38.18,67.06 -91.71,86.13 -42.1,15.01 -53.61,54.73 -15.02,55.66 54.72,1.31 29.88,129.36 106.54,14.03 4.08,-6.15 53.33,-65.36 52.35,-32.51 -0.3,9.87 24.54,52.98 23.15,98.42 -1.41,46.09 3.86,36.68 -39.83,59.96 -49.87,26.58 -17.65,84.1 -57.73,126.34 -34.75,36.6 -2.84,62.34 -49.47,119.2 -19.02,23.19 -77.35,98.08 -59.67,127.62 30.17,50.4 17.22,59.34 -47.39,70.39 -29.22,5 -86.08,-5.71 -32.13,47.44 9.58,9.44 25.7,26.65 24.94,40.63 -10.81,49.86 -2.85,64.17 -16.96,105.03 -17.29,50.11 -19.85,40.49 -24.24,98.8 -5.27,69.9 -30.88,79.12 -66.85,131.86 -47.49,69.65 -111.3,-4.77 -176.8,7.85 -26.72,5.14 -43.28,-0.99 -77.86,8.26 -38.67,10.35 -97.65,-60.87 -140,-22.86 -62.31,55.92 -69.05,37.75 -122.79,-20.27 -45.62,-49.26 -3,-35.22 -83.11,-47.39 -46.2,-7.02 -67.47,9.92 -119.06,9.92 h -7.42 c -61.02,41.95 -118.52,98.59 -198.44,51.26 -35.11,-20.79 -53.3,-53.66 -92.46,-47.81 -24.28,3.63 -50.73,-0.51 -80.61,7.7 -24.1,6.63 -81.81,1.1 -106.54,-4.11 -84.6,-17.84 -75.25,40.93 -90.24,61.04 -42.01,56.31 -50.87,33.7 -43.42,116.32 2.52,27.91 -51.26,179.66 -72.77,182.85 -39.32,5.84 -43.9,-90.8 -125.95,35.81 -39.61,61.12 -95.43,72.25 -163.29,57.74 -13.15,-2.81 -97.28,0.92 -108.86,12.42 -26.92,26.75 -8.5,71.61 -84.1,61.19 -13.33,-1.83 -65.33,4.68 -80.18,4.68 -42.84,74.37 -17.97,59.6 -28.39,82.68 -13.26,29.35 -77.44,18.44 -77.44,125.25 0,69.86 33.09,135.7 15.96,205.62 -17.78,72.6 -42.27,96.32 -68.45,157.48 -13.69,31.97 -24.65,123.7 29.06,97.61 35.59,-17.29 102.88,-7.81 62.03,53.72 -54.69,82.38 -98.35,66.14 -101.3,186.57 -1.01,41.1 -16.85,45.48 -8.83,106.55 0.8,6.15 -0.48,38.89 -0.48,45.12 v 0 c 19.02,-6.51 41.11,-12.65 79.6,-26.23 l 7.41,-3.02 c 111.95,-35.27 99.71,13.06 224.76,-51.4 33.09,-17.06 60.6,-61.28 84.48,-59.53 10.03,0.73 -27.94,66.04 4.96,64.63 36.62,-1.56 76.87,91.79 109,42.05 28.26,-43.75 89.96,-24.9 141.79,-44.27 45.05,-16.84 134.24,-35.07 182.75,-42.85 30.83,-4.95 115.78,-20.12 118.64,-55.38 1.16,-14.26 38.46,-80 47.67,-100.87 4.4,-9.96 33.46,-22.8 45.07,-30.19 47.29,-11.21 169.07,-46.21 214.98,-20.42 50.74,-10.78 70.57,-18.1 115.9,-14.17 22.46,1.95 51.12,12.69 51.12,37.89 0,31.13 -24.17,66.22 -4.54,119.07 33.14,89.18 27.22,52.08 16.26,145.66 -2.84,24.31 0.9,96.8 18.05,113.96 33.5,33.53 83.69,100.95 19.7,133.94 -40.84,21.05 -30.05,-15.36 -67.66,-19.98 -49.66,-6.1 -84.96,32.36 -128.98,10.49 -44.34,-22.03 -124.9,8.74 -154.07,42.99 -14.17,16.63 -23.55,27.23 -38.04,45.08 -3.52,4.33 -7.26,8.52 -11.29,12.37 -60.96,39.76 -50.92,52.27 -107.63,24.01 -43.63,-21.75 -50.58,64.77 -79.52,93.68 -59.35,59.29 -155.08,114.82 -239.92,118.65 -67.74,3.05 -85.07,24.26 -155.02,8.83 -42.89,-9.47 -52.39,-2.98 -96.72,-23.29 -43.48,-19.93 -33,42.24 -59.82,69.6 -12.21,12.45 -158.58,153.36 -79.08,153.36 48.75,0 98.07,10.99 138.05,39.26 37.23,26.32 55.73,11.25 102.53,64.92 39.76,45.58 10.33,97.39 -40.92,106.91 -39.93,7.42 -34.55,72.98 -115.33,35.58 -12.3,-5.69 -111.87,-34.44 -125.58,-35.15 -138.99,-7.19 -86.63,-16.09 -169.76,-99.22 -21.24,-21.24 -42.78,37.16 -110.23,25.52 -65.23,-11.26 -103.04,29.21 -143.49,71.38 -18.64,19.44 -89.28,44.82 -116.56,60.34 -86.57,27.04 -92.97,2.52 -158.7,14.46 -30.3,5.5 -105.38,-6.2 -126.16,-32.65 -8.23,-10.49 -56.61,-42.58 -70.67,-49.61 -93.46,-46.71 -28.4,10.74 -3.88,68.04 15.92,37.19 22.36,48.5 35.3,89.06 17.82,55.87 75.95,206.88 112.02,248.47 50.8,58.55 63.89,149.59 138.77,196.22 56.56,35.22 39.45,48.24 41.76,-30.05 1.48,-50.34 16.03,-32.67 44.93,-23.95 39.87,12.02 50.69,11.46 89.58,18.19 66.73,11.53 111.89,54.03 147.89,107.9 14.54,21.75 12.05,29.96 36.9,50.42 28.33,36.39 83.87,95.57 99.22,138.48 17.63,49.26 65.16,81.55 105.03,114.95 44.2,37.02 98.12,63.98 144.67,103.76 25.9,22.13 90.81,59.51 124.97,65.06 60.71,9.86 64.18,76.95 65.2,126.62 0.64,31.06 -21.18,24.94 -51.69,24.94 -82.22,0 -135.07,26.58 -204.2,-42.57 -46.76,-46.76 -125.93,-104.9 -163.19,-152.84 -9.45,-12.15 -67.55,-72.32 -75.79,-33.36 -7.28,34.46 -66.28,74.81 -79.23,134.38 -10.15,46.66 -18.89,78.88 -24.95,128.41 -5.92,48.47 -52.65,154.98 -104.32,173.26 -37.33,13.2 -23.68,-143.91 -22.01,-158.24 11.73,-100.98 -29.4,-47.29 -56.23,-39.12 -49.25,15.01 -52.58,3.48 -83.25,12 -62.81,17.47 -40.9,131.96 -84.34,188.1 -30.77,78.06 -33.59,146.98 -60.76,218.28 -14.38,37.74 -14.22,63.01 -37.23,107.06 -60.27,115.41 -103.16,88.79 -150.48,163.05 -49.79,78.13 -175.13,7.48 -193.48,142.45 -9.65,71.01 -28.01,174.04 -18.19,243.27 7.25,51.08 -20.41,178.07 -42.57,222.25 -53.39,100.96 -101.26,107.96 -200.09,150.63 -39.35,16.99 -29.42,-22.58 -61.33,16.25 -32.59,39.65 -107.18,0.31 -158.47,1.8 -33.84,0.98 -130.38,-20.9 -160.54,-39.69 -10.28,-6.41 -119.29,-34.28 -144.01,-43 -15.89,-5.6 -128.07,-56.97 -137.11,-63.92 -25.05,-19.26 -55.39,-45.81 -82.4,-56.79 l -3.59,-1.66 c -63.74,-24.85 -163.36,-77.25 -230.43,-39.26 -31.45,17.82 -25.76,24.84 -14.88,53.3 16.38,42.83 106.28,40.71 105.03,90.28 -0.99,39.89 -66.9,-29 -80.89,18.48 -7.55,25.63 40.09,6.55 24.81,64.49 -8.44,31.97 -4.17,67.54 39.4,46.3 11.99,-5.84 131.62,-32.68 147.04,-35.15 12.18,-0.68 113.2,-13.88 118.63,15.73 4.62,25.18 -37.69,83.75 -64.06,91.33 -28.5,8.2 -80.21,42.2 -125.68,56.65 -78.64,24.99 -160.52,33.71 -239.64,55.14 -41.05,11.12 -123.79,-18.1 -124.97,36.09 -0.14,6.3 26.89,79.89 33.03,88.45 43.43,60.58 87.1,83.42 162.06,91.1 34.85,3.57 82.54,-3.65 117.69,-7.42 20.61,-2.21 27.84,3.26 45.21,4.53 73.78,37.32 93.17,47.58 170.33,73.19 68.34,22.68 201.38,78.17 261.7,116.56 30.69,19.53 118.8,63.34 137.25,83.81 7.52,8.33 41.56,60.43 48.64,66.99 27.93,37.48 68.7,66.5 21.93,93.03 -38.35,21.76 33.63,69.57 55.79,100.88 21.13,29.85 21.81,52.9 41.48,77.43 17.69,22.06 19.04,55.15 58.97,93.69 23.35,22.54 55.19,67.24 81.03,84.76 26.96,18.28 139.7,99.04 160.17,104.61 42.96,11.69 89.03,22.64 130.73,35.38 46.58,14.24 129.82,31.26 168.15,-8.78 7.38,-7.7 -6.38,-68.15 2.17,-97.05 7.55,-25.5 37.08,-20.98 48.67,-12.23 1.06,0.8 11.94,26.26 19.04,36.38 20.58,29.31 13.8,38.42 44.08,70.97 21.54,23.14 20.81,28.11 48.76,53.71 46.01,42.13 91.08,147.73 156.67,123.08 16.6,-6.23 55.82,-18.64 60.81,4.68 6.11,28.49 -12.21,55.37 24.38,77.86 60.52,37.19 93.41,86.48 121,150.91 44.64,104.22 158.75,31.08 222.54,98.93 19.63,20.88 11.46,30.07 51.12,52.92 18.04,10.4 33.29,13.41 51.83,19.7 78.05,-14.13 76.65,-4.41 147.17,7.19 37.52,6.17 218.76,66.56 241.44,90.38 82.42,86.56 187.88,71.18 256.74,164.7 47.49,64.5 24.53,122.09 122.89,124.55 37.49,0.94 120.54,44.53 142.36,80.59 30.04,49.67 -2.69,62.33 82.97,88.22 88.67,26.8 5.64,81.02 102.43,136.45 33.67,19.29 57.82,49.52 88.02,73.56 l 79.37,50.11"
   id="path25"
   style="stroke:#000000;stroke-opacity:0.75;stroke-width:52.91666681;stroke-dasharray:none" />
  <path
   class="fil0 str0"
   d="m 4312.55,1000 v 0 l -117.41,123.73 c -37.27,47.13 -36.4,53.97 -84.33,83.1 -66.89,40.66 -48.21,43.88 -130.64,54.01 -94.02,11.55 -214.88,55.8 -294.35,108.86 -46.57,31.08 -62.04,47.11 -89.72,94.68 -18.98,32.6 -73.93,67.48 -100.74,103.52 -37.15,49.94 -60.68,97.6 -90.23,151 -19.51,35.24 -52.32,69.66 -73.19,100.45 -27.93,41.2 -51.37,78.79 -66.15,126.1 -8.29,26.55 -36.09,53.64 -41.86,67.35 1.5,2.56 3.75,5.68 6.45,8.45 9.82,10.07 15.96,41.11 19.27,57.31 6.98,34.07 7.08,20.02 16.12,42.71 26.36,66.15 72.6,49.08 116.18,62.55 35.84,11.07 54.44,8.75 85.85,17.53 41.33,11.55 51.66,47.93 76.07,46.02 45.51,-3.55 13.8,25.15 70.96,39.97 29.41,7.62 57.98,-16.93 63.12,13.75 6.28,37.42 14.7,37.9 19.42,56.79 13.24,52.89 22.56,34.07 36.38,67.52 9.81,23.75 94.78,30.11 99.65,28.11 28.01,-11.53 42.99,31.05 42.99,55.56 0,15.76 9.44,23.73 23.31,26.83 10.1,109.32 15.16,53.28 30.23,109 14.13,52.26 -42.87,92.21 -39.27,176.52 1.22,28.66 -48.34,26.21 -41.2,113.67 3.81,46.62 -23.71,79.39 -1.79,133.38 46.81,115.25 15.14,95.61 -40.26,172.45 -24.59,34.12 -61.44,44.18 -69.31,104.13 -3.14,23.96 -5.87,42.21 0.43,66.72 33.68,86.47 -0.82,51.5 -6.76,112.87 -3.59,37.03 40.96,67.67 36.38,133.66 -4.09,58.99 -24.04,118.76 41.48,148.12 13.32,5.96 38.78,41.59 73.12,62.02 v 0 c 30.55,-27.48 42.38,-27.55 26.03,-57.46 -13.23,-24.2 -45.25,-48.65 -14.89,-75.26 21.86,-19.15 -10.7,-50.01 -22.29,-77.86 -32.77,-78.71 -31.87,-59.19 37.61,-102.38 15.35,-9.55 47.34,-38.12 69.45,-52.92 33.24,-22.26 35.86,15.98 96.05,-7.42 21.46,-8.34 17.52,16.61 52.78,28.11 27.07,8.84 120.72,13.38 120.72,35.82 0,34.03 -22.63,59.14 47.95,67.8 33.72,4.13 75.22,34 125.25,33.49 41.71,-0.42 62.64,-55.85 90.15,-84.05 27.3,-27.98 41.1,-95.35 101.68,-123.37 52.13,-24.11 104.65,-47.66 152.28,-79.51 49.28,-32.96 33,-19.72 51.83,-75.93 25.37,-75.78 -40.36,-74.04 43.8,-172.64 35.28,-41.34 45.14,-167.61 111.64,-147.31 19.76,6.03 25.97,-6.15 52.92,7.98 49.45,25.94 196.5,-59.67 257.69,-59.67 85.74,0 75.88,31.23 170.32,26.46 15.79,-7.98 101.31,-64.38 128.99,-45.87 56.34,37.66 64.76,-21.8 102.38,3.3 14.18,9.45 39.5,49.23 77.44,19.42 36.83,-28.94 186.87,-120.14 230.14,-132.72 144.76,-42.08 97.4,-43.95 238.84,16.96 66.11,28.48 139.52,58.44 212.85,59.53 65.3,0.97 73.84,-47.33 162.39,-16.96 78.33,26.87 150.17,2.56 214.64,21.92 107.33,32.24 95.46,-109.22 193.38,-28.96 24.78,20.31 83.81,38.89 116.47,38.89 h 4.25 c 39.93,-10.49 200.59,-53.84 229.29,4.96 14.14,28.97 91.98,101.99 125.02,104.32 47.64,3.37 12.1,10.22 72.1,0.28 40.15,-6.64 65.06,19.95 118.59,12.67 19.11,-2.6 43.92,1.66 68.79,-5.4 20.69,-5.87 76.82,-17.26 78.95,15.46 1.58,24.31 20.56,62.38 46.02,67.37 53.92,10.57 62.58,99.65 142.12,55.66 31.29,-17.31 24.34,-48.03 99.03,-50.27 36.32,-1.09 62.04,22.67 98.65,16.96 28.15,-4.39 157.62,-5.77 141.41,47.96 -7.97,26.41 4,77.83 45.5,69.45 47.42,-9.58 107.01,18.95 139.33,52.49 48.72,50.55 108.91,-23.38 162.63,-35.16 15.44,-3.38 40.9,-13.53 56.46,-12.8 80.39,-8.55 89.31,2.73 157.52,0.14 43.99,-1.67 112.87,-9.58 93.55,55.52 -14.96,50.38 -16.41,86.81 -21.35,138.25 -3.64,37.87 32.39,34.44 53.05,42.14 26.4,9.85 24.38,21.7 14.46,52.54 -12.99,40.39 -16.53,69.51 31.14,88.02 63.23,24.56 61.76,-19.71 125.3,-14.6 45.75,3.67 72.29,24.44 117.64,3.45 26.05,-12.06 56.75,90.76 102.95,55.7 29.37,-22.27 -9.97,-63.71 48.39,-116.88 26.04,-23.73 89.99,51.89 118.26,51.26 39.11,-0.87 110.39,-22.65 129.79,31.42 20.29,115.36 -22.99,77.2 -52.92,151.47 -17.06,42.34 14.59,42.75 30.99,66.95 60.54,89.3 68.77,82.11 114.81,-16.54 16.57,-35.49 53.3,-1.79 62.28,-69.54 1.83,-13.85 -10.17,-34.52 -1.8,-66.48 8.53,-32.54 -10.75,-83.74 32.93,-118.78 17.5,-14.04 60.76,45.03 70.02,46.3 31.12,4.25 64.85,13.23 54.15,50.18 -11.42,39.41 22.84,70.47 70.25,57.45 41.11,-11.29 50.49,-17.28 94.45,-24.94 52.92,-9.21 150.91,-108.1 162.06,-166.74 8.29,-43.58 137.67,-81.54 148.26,-71.39 21.65,20.74 -39.71,88.26 19.42,124.02 72.9,44.08 66.11,67.39 106.26,137.54 21.31,37.24 77.23,6.32 98.14,-24.66 18.03,-26.73 59.88,-80.22 95.76,-57.46 38.7,24.55 132.94,31.3 178.22,35.96 118.86,12.22 39.54,70.32 67.89,153.27 21.19,61.97 10.89,67.41 23.44,121.52 2.77,11.95 21.77,56.7 40.11,35.39 66.59,-77.34 43.42,62.57 98.37,61.74 31.57,-0.47 5.32,-45.87 2.22,-75.63 -8,-76.74 -40.47,-88.29 20.41,-149.54 44.99,-45.26 39.74,-72.94 64.87,-101.96 2.06,-2.38 94.13,-51.63 96.06,-51.83 63.28,3.13 42.75,6.98 84.33,14.46 31.05,5.58 119.31,-44.94 131.72,-73.42 4.88,-11.2 76.23,-88.18 84.91,-92.33 23.91,-11.43 87.83,-12.69 89.16,24.62 2.29,64.54 18.76,82.69 53.91,135.51 16.54,24.84 90.31,3.75 69.68,94.12 -21.23,93.01 46.79,120.44 74.85,198.14 9.24,25.61 31.04,132.89 39.82,138.77 9.32,6.24 76.97,-45.46 133.53,-44.65 31.55,0.45 53.21,-1 84.62,6.19 75.48,17.28 29.94,-152.08 98.13,-137.91 55.75,11.58 67.19,12.57 95.35,-45.22 13.43,-27.58 51.84,-30.02 82.82,-49.75 27.35,-17.43 101.6,-58.84 99.36,3.31 -1.23,34.29 -12.47,100.01 27.55,122.37 31.15,17.4 33.77,-26.78 100.87,-1.79 24.65,9.18 64.18,5.48 71.39,-27.03 21.16,-95.45 56.33,26.3 152.56,-37.05 30.28,-19.93 77.96,-35.26 113.82,-39.82 96.7,39.45 51.91,10.54 123.22,-11.44 76.63,-23.62 50.82,10.17 89.01,39.55 22.35,17.18 20.89,16.9 46.4,31.28 10.81,6.09 89.21,104.47 99.13,122.65 64.39,118.02 -33.46,113.01 49.84,184.5 7.99,6.85 19.78,24.39 25.66,33.64 75.14,83.53 35.64,27.24 105.97,60.24 36.32,17.04 -20.11,83.96 56.51,78.66 17.08,-1.18 55.28,12.66 70.31,22.04 6.17,-6.98 23.61,-6.31 34.46,-14.37 33.94,-25.19 89.71,-55.95 55.66,-100.59 -44.5,-58.36 52.96,-76.55 58.44,-89.72 13.88,-33.39 24.56,-22.9 17.62,-71.11 -5.62,-39.07 -5.38,-83.08 -46.3,-102.09 -39.92,-18.54 -65.51,-39.01 -38.7,-86.85 21.33,-38.08 -11.98,-31.46 -10.91,-52.35 4.48,-86.91 -22.59,-59.74 -48.52,-102.53 -50.06,-82.58 17.83,-95.58 -30.99,-132.01 -35,-26.12 -25.91,-50.01 -6.06,-83.1 41.62,-69.4 65.18,-45.18 64.07,-137.25 -0.01,-1.55 -1.39,-2.78 -2.08,-4.16 -7.37,-14.79 -18.03,-61.42 9.64,-65.44 46.33,-6.72 37.54,27.17 71.25,-23.15 25.92,-38.71 5.7,-78.1 -33.07,-75.93 -24.03,1.34 15.37,-53.04 39.17,-61.75 80.89,-29.62 -1.88,-32.96 53.57,-80.17 32.51,-27.67 3.99,-46.72 12.43,-74.28 22.52,-73.53 48.78,-37.94 66.15,-88.07 5.91,-17.05 28.28,-57.5 52.49,-47.53 12.91,5.31 25.65,-2.86 34.73,-3.59 41.61,-3.34 32.05,-78.4 27.02,-87.78 74.59,-32.93 64.19,-26.42 93.14,-86.22 15.67,-32.38 63.8,-53.39 75.93,-116.05 2.61,-13.48 18.44,-93.68 25.89,-98.35 13.28,-8.34 87.01,-10.46 114.62,-18.48 46.25,-13.43 63.49,-10.58 114.11,-29.91 68.74,-26.26 31.66,27.79 81.59,26.46 45.99,-1.23 144.15,128.9 195.56,54.14 35.97,-52.3 16.66,-49.64 38.46,-100.44 4.58,-10.68 54.32,-1.76 85.7,-56.23 14.23,-24.69 59.31,-36.09 83.54,-9.49 46.69,51.25 96.98,5.58 159.03,18.18 69.59,14.14 97.95,-26.21 149.21,19.85 53,47.61 135.79,7.29 193.62,-5.39 v 0 c -2.18,-7.7 -17.58,-43.55 -19.5,-50.64 -16.14,-59.34 13.67,-90.1 -36.81,-119.92 -58.95,-34.83 -67.52,24.74 -86.55,-52.77 -6.89,-28.05 -7.47,-79.95 -4.68,-109.28 5.81,-61.05 -14.35,-40.98 -46.16,-70.4 -29.58,-27.35 -106.6,-44.16 -88.87,-94.4 13.36,-37.88 20,-31.06 37.61,-92.6 -12.15,-37.56 12.68,-87.66 -2.32,-101.02 -44.23,-39.39 -4.33,-56.66 -19.18,-70.96 -22.44,-21.6 -23.39,1.87 -56.66,-47.96 -37.13,-55.61 59.72,-36.64 60.11,-36.8 45.83,-19.27 -41.27,-73.07 -43.56,-82.54 -6.18,-25.53 5.43,-49.71 23.57,-65.73 32.05,-28.28 65,-29.89 71.25,-36.38 22.94,-23.77 -18.28,-42.17 -33.78,-51.26 -39.4,-23.11 -91.99,-54.6 -90.38,-107.2 1.97,-64.43 -11.45,-45.62 -23.16,-82.97 -17.25,-54.98 -51.53,-26.2 -21.49,-109.28 l 54.57,-46.82 v 0"
   id="path27"
   style="stroke:#000000;stroke-opacity:0.75;stroke-width:52.91666681;stroke-dasharray:none" />
  <path
   class="fil1 str0"
   d="m 19174.04,15591.63 c -0.01,-0.35 -5.02,-106.55 11.57,-83.91 28.59,38.99 9.34,-8.44 28.68,49.75 7.09,21.34 17.64,44.99 -13.51,55.37 -2.3,0.76 -11.98,0.28 -15.17,0.28 z m 406.8,381.99 c -14.67,-15.24 -48.69,-48.01 -34.31,-75.65 1.59,-3.05 63.58,18.93 73.99,29.35 23.45,23.44 40.18,29.34 53.49,56.22 10.14,20.49 -33.21,15.03 -53.63,19.42 -8.81,1.89 -16.6,-2.32 -23.01,-4.54 z m 685.34,-342.15 c -10.81,7.65 -72.14,57.26 -89.87,21.5 -10.72,-21.63 59.5,-46.52 78.72,-79.38 15.16,-25.93 92.07,-47.21 125.82,-71.11 19.9,-14.09 101.3,-72.68 65.01,-4.96 -22.69,42.36 -31.98,33.19 -60.19,62.42 -17.95,18.58 -44.97,36.73 -68.23,48.38 z m -3192.27,175.15 c -28.37,-57.54 -26.89,-71.76 31.42,-57.31 56.7,14.05 109.91,6.51 163.85,32.21 24.37,11.62 90.8,24.26 92.6,25.53 25.69,18.09 -163.13,8.82 -194.04,-3.74 -13.06,-5.31 -25.11,-10.44 -39.26,-9.92 z m 7744.69,-2297.45 c 0,-6.23 1.28,-38.97 0.48,-45.12 -8.02,-61.07 7.82,-65.45 8.83,-106.55 2.95,-120.43 46.61,-104.19 101.3,-186.57 40.85,-61.53 -26.44,-71.01 -62.03,-53.72 -53.71,26.09 -42.75,-65.64 -29.06,-97.61 26.18,-61.16 50.67,-84.88 68.45,-157.48 17.13,-69.92 -15.96,-135.76 -15.96,-205.62 0,-106.81 64.18,-95.9 77.44,-125.25 10.42,-23.08 -14.45,-8.31 28.39,-82.68 14.85,0 66.85,-6.51 80.18,-4.68 75.6,10.42 57.18,-34.44 84.1,-61.19 11.58,-11.5 95.71,-15.23 108.86,-12.42 67.86,14.51 123.68,3.38 163.29,-57.74 82.05,-126.61 86.63,-29.97 125.95,-35.81 21.51,-3.19 75.29,-154.94 72.77,-182.85 -7.45,-82.62 1.41,-60.01 43.42,-116.32 14.99,-20.11 5.64,-78.88 90.24,-61.04 24.73,5.21 82.44,10.74 106.54,4.11 29.88,-8.21 56.33,-4.07 80.61,-7.7 39.16,-5.85 57.35,27.02 92.46,47.81 79.92,47.33 137.42,-9.31 198.44,-51.26 h 7.42 c 51.59,0 72.86,-16.94 119.06,-9.92 80.11,12.17 37.49,-1.87 83.11,47.39 53.74,58.02 60.48,76.19 122.79,20.27 42.35,-38.01 101.33,33.21 140,22.86 34.58,-9.25 51.14,-3.12 77.86,-8.26 65.5,-12.62 129.31,61.8 176.8,-7.85 35.97,-52.74 61.58,-61.96 66.85,-131.86 4.39,-58.31 6.95,-48.69 24.24,-98.8 14.11,-40.86 6.15,-55.17 16.96,-105.03 0.76,-13.98 -15.36,-31.19 -24.94,-40.63 -53.95,-53.15 2.91,-42.44 32.13,-47.44 64.61,-11.05 77.56,-19.99 47.39,-70.39 -17.68,-29.54 40.65,-104.43 59.67,-127.62 46.63,-56.86 14.72,-82.6 49.47,-119.2 40.08,-42.24 7.86,-99.76 57.73,-126.34 43.69,-23.28 38.42,-13.87 39.83,-59.96 1.39,-45.44 -23.45,-88.55 -23.15,-98.42 0.98,-32.85 -48.27,26.36 -52.35,32.51 -76.66,115.33 -51.82,-12.72 -106.54,-14.03 -38.59,-0.93 -27.08,-40.65 15.02,-55.66 53.53,-19.07 62.46,-32.6 91.71,-86.13 -12.29,-1.99 -19.46,-21.11 -29.25,-30.9 -65.77,-65.77 -23.29,-64.11 -44.6,-108.01 -13.13,-27.07 -71.42,-66.21 -55.56,-100.87 8.15,-17.79 -19.83,-61.42 -15.69,-72.62 15.61,-42.27 11.21,-43.93 7.98,-84.47 -6.7,-83.9 -181.74,-62.36 -238.26,-59.54 l 10.82,-96.19 c 3.2,-19.43 18.83,-53.6 22.73,-73.7 8.61,-44.52 49.73,-69.73 34.06,-114.54 -11.08,-31.67 -6.44,-18.46 -7.18,-52.2 -0.38,-17.27 30.84,-68.86 41.2,-82.59 12.61,-16.72 60.45,-7.05 37.6,-84.76 -20.65,-70.26 150.3,-0.99 178.65,3.22 43.05,6.39 61.15,17.89 97.8,34.96 33.45,15.57 62.37,-18.16 70.96,-43.8 9.01,-26.85 62.11,-90.64 56.38,-118.12 -7.23,-34.6 -13.22,-67.5 -36.24,-94.35 -37.34,-43.55 -77.21,119.2 -146.05,86.93 -37.15,-17.41 -111.26,-59.58 -152.7,-61.46 -84.82,-3.85 -53.67,-124.8 -134.23,-144.96 -51.8,-12.97 -47.46,-17.27 -82.82,-73.19 -0.81,-10.26 -2.23,-15.63 -3.88,-25.23 -18.42,-107.48 171.46,-15.87 234.96,-79.37 49.21,-49.21 123.95,-4.03 155.45,-61.99 25.14,-46.28 43.97,-89.57 72.33,-137.25 89.08,-149.79 115.24,-66.53 162.91,-139.05 15.66,-23.82 16.5,-37.08 29.34,-54.71 42.9,-58.89 100.05,-14.79 116.18,-56.37 35.4,-91.23 -59.4,-65.58 -29.33,-138.05 33.86,-81.63 1.53,-69 -41.64,-106.55 -27.37,-23.81 -112.56,-72.61 -127.9,-97.7 -38,-62.18 -45.56,-57.43 -49.18,-145.52 2,-9.76 2.7,-31.81 3.31,-43.14 1.93,-35.7 38.32,-63.64 68.18,-78.53 36.66,-18.28 49.22,-35.23 76.11,-51.4 70.81,-42.57 9.83,-73.29 -6.61,-115.9 -13.71,-35.51 -73.44,11.15 -115.9,9.5 -53.34,-2.08 -89.27,26.85 -127.47,12.81 -37.16,-13.67 -81.77,77.66 -161.26,74.97 -77.08,-2.61 -102.68,-19.59 -163,-63.4 -19.95,-14.49 -89.19,-44.71 -92.74,-49.46 -29.5,-39.47 -45.22,-82.27 -82.97,-117.56 -59.02,-55.16 -40.1,-148.41 -83.63,-156.81 -46.64,-9 -45.57,7.47 -107.77,-21.64 -45.09,-21.11 -12.82,-30.09 -97.57,-16.25 -31.37,15.32 -111.67,47.89 -145.52,23.57 -29.73,-21.36 -97.27,-67.28 -99.36,-106.69 -3.42,-64.47 9.17,-41.36 -32.93,-90.24 -35.36,-41.05 -18.96,-47.89 -34.73,-72.61 -34.14,-53.53 -88.72,41.98 -114.24,49.61 -63.14,18.87 -96.48,94.53 -156.82,73.99 -62.19,-21.18 -69.83,76.82 -120.85,1.51 -63.62,-93.91 9.44,-139.46 -88.31,-135.6 -56.57,2.23 -39.09,-20.76 -95.53,-33.5 -96.04,-21.67 -66.36,-73.57 -101.82,-81.69 -34.65,-7.92 -52.66,-73.36 -43,-104.18 7.25,-23.1 -14.05,-58.09 -15.73,-57.07 -40.12,24.34 -3.05,32.78 -75.64,48.38 -64.07,0 -57.23,-0.91 -117.98,25.89 -120.22,53.04 -59.38,-145.24 -170.56,-72.61 -79.71,52.06 -87.68,-56.15 -112.08,-83.49 -36.03,-40.39 -18.07,-93.33 -28.11,-103.09 -25.97,-25.26 -120.02,19.98 -173.21,19.98 -26.43,0 -61.58,-36.83 -51.68,11.29 14.43,70.2 14.4,105.1 17.1,175.99 1.22,31.93 20.83,47.13 10.35,58.69 -89.05,98.22 -130.27,43.15 -195.13,76.49 -66.36,34.11 -58.72,-16.08 -61.62,-58.96 -0.96,-14.28 -37.76,-50.41 -47.01,-56.93 -36.17,-25.54 -77.16,-108.62 -137.11,-148.83 -47.41,-31.81 -27.08,-48.58 -57.45,-62.7 -50.12,-23.31 -155.65,-32.65 -190.6,-66.57 -10.63,-10.32 -45.08,-82.4 -50.83,-92.18 -5.4,-7.16 -12.98,-17.2 -16.97,-24.95 -15.48,-30.08 -66.8,-94.5 -71.25,-120.15 -5.82,-33.56 7.19,-93.68 7.19,-136.45 0,-50.11 8.71,-115.54 -56.75,-113.67 -104.93,2.99 -92.47,-102.09 -132.2,-130.64 -95.53,-68.66 6.26,-164.11 -16.11,-167.02 -10.08,-1.31 -148.45,53.66 -174.71,62.84 -21.42,7.49 -32.55,-23.29 -43.43,5.38 -33.57,88.5 -108.94,78.7 -186.2,114.11 -100.29,45.97 -73.73,23.99 -173.21,40.34 -48.42,7.96 -100.91,4.02 -142.64,12.57 -58.2,11.93 -78.89,10.64 -141.36,31 -21.36,0.62 -55.66,29.25 -75.27,41.76 -48.73,31.09 -176.77,83.05 -195.41,136.17 -15.41,43.92 -60.25,94.23 -100.97,46.82 -34.01,-39.6 -70.88,-11.47 -57.88,-81.45 11.27,-60.62 -76.87,-53.55 -112.07,-70.54 -41.26,-19.92 -58.36,-1.83 -89.11,-39.26 -12.18,-14.83 -69.76,21.53 -83.53,30.99 -73.83,50.73 -127.08,19.24 -162.48,-54.05 -21.4,-44.29 -34.87,-96.04 -80.04,-116.94 -68.27,-31.57 -59.65,-87.43 -77.86,-101.01 -73.9,-55.11 -95.14,-40.13 -181.48,-42.19 -43.76,-1.05 -57.88,8.88 -89.87,10.06 -53.06,1.96 -108.58,24.23 -160.68,39.98 -63.97,19.32 -49.11,-32.62 -79.66,10.06 -37.62,52.54 -50.27,42.33 -78.8,109.14 -14.07,32.92 -52.1,40.09 -84.49,31.42 -59.15,-15.85 -65.3,-0.8 -116.04,-51.83 -10.31,-9.47 -36.81,-105.96 -36.38,-126.77 1.3,-62.05 -27.51,-69.83 -88.35,-76.63 -98.76,-11.03 -88.87,-139.86 -141.51,-194.99 -99.36,-104.06 33.27,-134.3 -23.29,-172.69 -40.12,-27.23 0.21,-42.36 27.17,-62.7 38.41,-28.97 73.22,-5.5 77.15,-27.4 17.31,-96.43 -46.62,-69.53 -13.23,-203.68 48.63,-99.48 -99.89,-38.59 -85.56,-138.25 15.43,-107.36 -22.67,-73.26 -37.24,-114.9 -25.81,-73.77 41.18,-108.65 -34.29,-129.41 -76.06,-20.91 -17.19,-123.98 -27.55,-135.46 -51,-56.49 22.6,-50.72 51.93,-72.33 60.06,-44.27 -20.83,-77.48 -40.5,-102.53 -17.98,-22.91 -116.17,7.41 -129.4,9.92 l -20.08,3.45 c -88.69,15.25 -113.05,-6.62 -94.46,-91.09 13.74,-62.38 -67.14,-108.96 -77.29,-143.87 -11.87,-40.84 45.26,-173.7 -45.59,-154.36 -28.49,6.07 -96.91,78.56 -129.7,27.6 -42.66,-66.32 -80.07,47.97 -141.41,35.39 -51.83,-10.64 -100.46,78.09 -150.43,56.78 -67.26,-28.67 -76.1,18.33 -122,-0.57 -43.92,-18.08 -67.32,-102.27 -70.82,-144.52 -3.14,-37.87 -76.23,-24.45 -98.56,-14.88 -102.63,44 -85.69,-33.68 -118.21,-24.95 -38.06,10.23 -91.99,25.53 -124.97,-3.44 -8.32,-7.31 -69.37,-17.79 -73.89,-16.4 -81.93,25.09 -49.18,124.43 -214.33,-17.91 11.96,-21.49 27.09,-44.93 63.27,-57.91 58.62,-21.04 50.63,-51.14 71.1,-99.22 8.87,-20.83 13.18,-30.72 19.21,-37.64 -28.92,-24.52 -121.6,-85.48 -134.45,-119.09 -15.7,-41.1 44.86,-146.01 59.11,-196.65 16.37,-58.15 -62.11,-105.73 -50.27,-156.81 14.15,-61.08 -101.66,-61 -112.59,-98.79 -13.87,-47.92 42.29,-34.92 -49.37,-105.17 -6.6,-5.06 -51.6,-28.16 -52.21,-29.06 -27.01,-39.39 297.58,-78.17 324.4,-102.67 14.41,-13.17 79.61,-18.01 100.87,-20.27 110.6,-11.74 40.69,-140.65 19.98,-196.36 5.88,-59.16 11.87,-88.31 -48.8,-117.41 -47.12,-22.59 -58.39,-62.29 -117.55,-61.18 -69.79,1.31 -57.5,-39.03 -78.53,-93.55 -17.71,-45.92 -7.04,-29.16 -40.91,-66.43 -50.33,-55.36 -73.37,-17.13 -83.54,-67.13 -18.17,-89.43 -56.15,-20.69 -59.1,-80.18 -3.41,-68.75 -27.22,-53.51 -41.77,-93.98 -7.2,-20.04 12.26,-127.22 27.02,-146.94 35,-46.72 -33.07,-84.08 -45.87,-124.16 -33.56,-105.06 -69.25,-74.27 -89.72,-96.58 -23.55,-25.65 12.24,-6.81 -43,-61.18 -15.35,-8.11 -21.11,-12.58 -31.56,-26.32 -4.24,-5.57 -35.09,-88.52 -37.61,-102.39 -5.39,-29.62 -44.1,-63.51 -69.6,-63.11 -112.18,1.75 -7.01,-87.65 -77.01,-87.65 -94.79,0 -180.94,7.81 -272.33,30.2 -37.15,9.09 -131.62,73.99 -158.47,70.39 -81.56,-10.95 -24.22,-91.8 -28.54,-102.24 -21,-50.78 -115.32,80.12 -146.32,18.19 -15.52,-31.01 -45.94,-42.97 -79.52,-31.56 -62.38,21.19 -33.73,23.29 -100.07,23.29 -9.77,0 -90.54,-28.38 -96.57,-33.5 -25.51,-21.62 -64.32,31 -78.29,50.46 -14.36,19.99 -70.57,77.33 -97.42,65.3 -56.91,-25.52 -77.45,56.92 -114.96,70.31 -60.7,21.66 -56.05,20.42 -107.58,61.97 -109.46,88.28 -31.16,-57.36 -168.67,-9.06 -96.2,33.78 -58.37,-0.16 -101.16,1.23 -61.65,2 -46.91,6.05 -112.87,-38.04 -20.28,-10.92 -83.75,-47.51 -101.87,-59.96 -26.27,-18.04 -126.34,-47.87 -159.13,-42.14 -87.88,15.37 -67.38,-46 -87.36,-40.82 -32.63,8.45 -46.12,47.95 -53.9,75.55 -20.16,71.45 5.1,100.53 -0.81,135.31 -14.1,82.97 -96.73,63.57 -66.57,110.66 43.08,67.27 50.29,85.3 4.96,155.01 -24.03,36.95 -90.9,80.02 -129.27,103.38 -30.97,18.85 -133.62,68.99 -152.7,86.41 -83.52,76.24 -121.87,18.53 -200.8,7.85 -20.81,-2.82 -126.41,25.63 -96.15,-27.83 40.52,-71.6 -19.24,-57.84 -36.24,-71.82 -31.47,-25.88 -44.07,-20.83 -80.37,-28.53 -50.63,-10.75 -15.41,15.03 -88.3,-12.81 v 0 c -57.83,12.68 -140.62,53 -193.62,5.39 -51.26,-46.06 -79.62,-5.71 -149.21,-19.85 -62.05,-12.6 -112.34,33.07 -159.03,-18.18 -24.23,-26.6 -69.31,-15.2 -83.54,9.49 -31.38,54.47 -81.12,45.55 -85.7,56.23 -21.8,50.8 -2.49,48.14 -38.46,100.44 -51.41,74.76 -149.57,-55.37 -195.56,-54.14 -49.93,1.33 -12.85,-52.72 -81.59,-26.46 -50.62,19.33 -67.86,16.48 -114.11,29.91 -27.61,8.02 -101.34,10.14 -114.62,18.48 -7.45,4.67 -23.28,84.87 -25.89,98.35 -12.13,62.66 -60.26,83.67 -75.93,116.05 -28.95,59.8 -18.55,53.29 -93.14,86.22 5.03,9.38 14.59,84.44 -27.02,87.78 -9.08,0.73 -21.82,8.9 -34.73,3.59 -24.21,-9.97 -46.58,30.48 -52.49,47.53 -17.37,50.13 -43.63,14.54 -66.15,88.07 -8.44,27.56 20.08,46.61 -12.43,74.28 -55.45,47.21 27.32,50.55 -53.57,80.17 -23.8,8.71 -63.2,63.09 -39.17,61.75 38.77,-2.17 58.99,37.22 33.07,75.93 -33.71,50.32 -24.92,16.43 -71.25,23.15 -27.67,4.02 -17.01,50.65 -9.64,65.44 0.69,1.38 2.07,2.61 2.08,4.16 1.11,92.07 -22.45,67.85 -64.07,137.25 -19.85,33.09 -28.94,56.98 6.06,83.1 48.82,36.43 -19.07,49.43 30.99,132.01 25.93,42.79 53,15.62 48.52,102.53 -1.07,20.89 32.24,14.27 10.91,52.35 -26.81,47.84 -1.22,68.31 38.7,86.85 40.92,19.01 40.68,63.02 46.3,102.09 6.94,48.21 -3.74,37.72 -17.62,71.11 -5.48,13.17 -102.94,31.36 -58.44,89.72 34.05,44.64 -21.72,75.4 -55.66,100.59 -10.85,8.06 -28.29,7.39 -34.46,14.37 -15.03,-9.38 -53.23,-23.22 -70.31,-22.04 -76.62,5.3 -20.19,-61.62 -56.51,-78.66 -70.33,-33 -30.83,23.29 -105.97,-60.24 -5.88,-9.25 -17.67,-26.79 -25.66,-33.64 -83.3,-71.49 14.55,-66.48 -49.84,-184.5 -9.92,-18.18 -88.32,-116.56 -99.13,-122.65 -25.51,-14.38 -24.05,-14.1 -46.4,-31.28 -38.19,-29.38 -12.38,-63.17 -89.01,-39.55 -71.31,21.98 -26.52,50.89 -123.22,11.44 -35.86,4.56 -83.54,19.89 -113.82,39.82 -96.23,63.35 -131.4,-58.4 -152.56,37.05 -7.21,32.51 -46.74,36.21 -71.39,27.03 -67.1,-24.99 -69.72,19.19 -100.87,1.79 -40.02,-22.36 -28.78,-88.08 -27.55,-122.37 2.24,-62.15 -72.01,-20.74 -99.36,-3.31 -30.98,19.73 -69.39,22.17 -82.82,49.75 -28.16,57.79 -39.6,56.8 -95.35,45.22 -68.19,-14.17 -22.65,155.19 -98.13,137.91 -31.41,-7.19 -53.07,-5.74 -84.62,-6.19 -56.56,-0.81 -124.21,50.89 -133.53,44.65 -8.78,-5.88 -30.58,-113.16 -39.82,-138.77 -28.06,-77.7 -96.08,-105.13 -74.85,-198.14 20.63,-90.37 -53.14,-69.28 -69.68,-94.12 -35.15,-52.82 -51.62,-70.97 -53.91,-135.51 -1.33,-37.31 -65.25,-36.05 -89.16,-24.62 -8.68,4.15 -80.03,81.13 -84.91,92.33 -12.41,28.48 -100.67,79 -131.72,73.42 -41.58,-7.48 -21.05,-11.33 -84.33,-14.46 -1.93,0.2 -94,49.45 -96.06,51.83 -25.13,29.02 -19.88,56.7 -64.87,101.96 -60.88,61.25 -28.41,72.8 -20.41,149.54 3.1,29.76 29.35,75.16 -2.22,75.63 -54.95,0.83 -31.78,-139.08 -98.37,-61.74 -18.34,21.31 -37.34,-23.44 -40.11,-35.39 -12.55,-54.11 -2.25,-59.55 -23.44,-121.52 -28.35,-82.95 50.97,-141.05 -67.89,-153.27 -45.28,-4.66 -139.52,-11.41 -178.22,-35.96 -35.88,-22.76 -77.73,30.73 -95.76,57.46 -20.91,30.98 -76.83,61.9 -98.14,24.66 -40.15,-70.15 -33.36,-93.46 -106.26,-137.54 -59.13,-35.76 2.23,-103.28 -19.42,-124.02 -10.59,-10.15 -139.97,27.81 -148.26,71.39 -11.15,58.64 -109.14,157.53 -162.06,166.74 -43.96,7.66 -53.34,13.65 -94.45,24.94 -47.41,13.02 -81.67,-18.04 -70.25,-57.45 10.7,-36.95 -23.03,-45.93 -54.15,-50.18 -9.26,-1.27 -52.52,-60.34 -70.02,-46.3 -43.68,35.04 -24.4,86.24 -32.93,118.78 -8.37,31.96 3.63,52.63 1.8,66.48 -8.98,67.75 -45.71,34.05 -62.28,69.54 -46.04,98.65 -54.27,105.84 -114.81,16.54 -16.4,-24.2 -48.05,-24.61 -30.99,-66.95 29.93,-74.27 73.21,-36.11 52.92,-151.47 -19.4,-54.07 -90.68,-32.29 -129.79,-31.42 -28.27,0.63 -92.22,-74.99 -118.26,-51.26 -58.36,53.17 -19.02,94.61 -48.39,116.88 -46.2,35.06 -76.9,-67.76 -102.95,-55.7 -45.35,20.99 -71.89,0.22 -117.64,-3.45 -63.54,-5.11 -62.07,39.16 -125.3,14.6 -47.67,-18.51 -44.13,-47.63 -31.14,-88.02 9.92,-30.84 11.94,-42.69 -14.46,-52.54 -20.66,-7.7 -56.69,-4.27 -53.05,-42.14 4.94,-51.44 6.39,-87.87 21.35,-138.25 19.32,-65.1 -49.56,-57.19 -93.55,-55.52 -68.21,2.59 -77.13,-8.69 -157.52,-0.14 -15.56,-0.73 -41.02,9.42 -56.46,12.8 -53.72,11.78 -113.91,85.71 -162.63,35.16 -32.32,-33.54 -91.91,-62.07 -139.33,-52.49 -41.5,8.38 -53.47,-43.04 -45.5,-69.45 16.21,-53.73 -113.26,-52.35 -141.41,-47.96 -36.61,5.71 -62.33,-18.05 -98.65,-16.96 -74.69,2.24 -67.74,32.96 -99.03,50.27 -79.54,43.99 -88.2,-45.09 -142.12,-55.66 -25.46,-4.99 -44.44,-43.06 -46.02,-67.37 -2.13,-32.72 -58.26,-21.33 -78.95,-15.46 -24.87,7.06 -49.68,2.8 -68.79,5.4 -53.53,7.28 -78.44,-19.31 -118.59,-12.67 -60,9.94 -24.46,3.09 -72.1,-0.28 -33.04,-2.33 -110.88,-75.35 -125.02,-104.32 -28.7,-58.8 -189.36,-15.45 -229.29,-4.96 h -4.25 c -32.66,0 -91.69,-18.58 -116.47,-38.89 -97.92,-80.26 -86.05,61.2 -193.38,28.96 -64.47,-19.36 -136.31,4.95 -214.64,-21.92 -88.55,-30.37 -97.09,17.93 -162.39,16.96 -73.33,-1.09 -146.74,-31.05 -212.85,-59.53 -141.44,-60.91 -94.08,-59.04 -238.84,-16.96 -43.27,12.58 -193.31,103.78 -230.14,132.72 -37.94,29.81 -63.26,-9.97 -77.44,-19.42 -37.62,-25.1 -46.04,34.36 -102.38,-3.3 -27.68,-18.51 -113.2,37.89 -128.99,45.87 -94.44,4.77 -84.58,-26.46 -170.32,-26.46 -61.19,0 -208.24,85.61 -257.69,59.67 -26.95,-14.13 -33.16,-1.95 -52.92,-7.98 -66.5,-20.3 -76.36,105.97 -111.64,147.31 -84.16,98.6 -18.43,96.86 -43.8,172.64 -18.83,56.21 -2.55,42.97 -51.83,75.93 -47.63,31.85 -100.15,55.4 -152.28,79.51 -60.58,28.02 -74.38,95.39 -101.68,123.37 -27.51,28.2 -48.44,83.63 -90.15,84.05 -50.03,0.51 -91.53,-29.36 -125.25,-33.49 -70.58,-8.66 -47.95,-33.77 -47.95,-67.8 0,-22.44 -93.65,-26.98 -120.72,-35.82 -35.26,-11.5 -31.32,-36.45 -52.78,-28.11 -60.19,23.4 -62.81,-14.84 -96.05,7.42 -22.11,14.8 -54.1,43.37 -69.45,52.92 -69.48,43.19 -70.38,23.67 -37.61,102.38 11.59,27.85 44.15,58.71 22.29,77.86 -30.36,26.61 1.66,51.06 14.89,75.26 16.35,29.91 4.52,29.98 -26.03,57.46 v 0 c 19.44,54.55 17.45,52.59 42.5,92.1 3.14,4.94 6,89.45 9.12,108.43 17.86,108.62 -64.28,118.26 -28.67,211.67 13.89,36.44 47.95,8.05 71.82,110.37 29.45,126.28 29.56,74.46 105.12,168.95 39.5,49.41 20.58,28.39 68.79,63.84 75.11,55.22 16.2,78.95 45.45,156.81 42.01,65.79 40.94,60.23 89.01,108.71 41.48,41.83 20.34,190.97 111.22,262.27 5.87,4.6 38.06,42.4 54.72,57.31 41.7,37.33 30.24,42.61 87.79,68.08 36.02,15.94 66.4,64.01 0.42,69.17 -22.12,1.73 -120.37,17.29 -135.37,29.77 -45.77,38.11 -85.19,97.26 -23.24,141.55 51.26,36.65 80.55,39.47 65.58,99.22 -8.91,35.55 70.58,5.82 54.57,121.38 -3.2,23.04 13.48,85.2 16.11,119.86 1.12,14.76 3.68,36.27 6.62,50.46 -7.36,89.36 -6.4,71.36 -28.4,148.26 -13.69,47.86 -37.09,119.73 -41.06,167.45 -3.09,37.14 -36.59,77.92 -74.27,79.38 -42.7,1.65 -120.54,21.81 -168.53,30.47 -77.76,14.03 -219.87,18.76 -245.17,111.74 -10.92,40.14 -8.53,80.66 -59.25,89.87 -61.02,11.08 -64.93,79.53 -104.18,108.71 -54.72,40.67 -63.1,52.57 -127.89,86.41 -47.59,24.85 -58.18,62.63 -95.35,103.62 -26.17,28.85 -31.57,43.3 -65.58,71.62 -43.77,36.44 -100.73,84.63 -134.65,128.61 -34.02,44.17 -107.66,126.89 -129.98,174.34 -12.68,26.94 -60.4,105.67 -82.35,126.48 -13.31,12.61 -76.95,94.95 -86.99,111.5 -25.39,41.88 -90.59,156.52 -132.57,171.41 -81.71,28.98 -41.49,97.96 -107.78,135.18 -29.13,16.35 -103.8,134.1 -125.1,167.44 -10.81,16.91 -55.54,41.18 -79.95,65.58 -67.56,67.58 -53.13,109.26 -107.49,171.32 -24.35,27.8 -49.93,98.75 -65.57,133.52 0.35,35.25 -4.61,115.16 48.38,114.1 49.73,-0.99 21.82,73.81 28.92,110.37 8.07,41.58 5.93,86.29 20.26,133.29 15.13,49.6 23.74,200.2 10.35,251.87 -50.56,195.05 53.44,81.23 28.77,187.57 -16.38,70.67 106.37,52.75 117.98,105.69 17.44,79.53 105.82,44.78 72.76,146.89 -13.14,40.59 -12.73,47.2 1.65,86.27 -38.2,62.8 -30.59,18.49 -54.43,-6.75 -18.94,-20.07 -57.68,-6.19 -88.92,-12.67 -29.55,-6.12 -31.29,-1.48 -67.23,-14.22 -39.71,-14.07 -17.85,14.49 -62.69,-27.54 -19.16,-17.96 -88.19,-43.87 -104.18,-66.15 -10.92,-15.21 -53.87,-11.67 -71.77,-11.57 -6.27,0.04 -13.29,1.73 -18.76,4.96 v 0 c -1.75,39.33 0.65,83.24 1.65,124.02 0.8,32.54 -74.34,36.17 -112.44,101.3 -19.34,33.06 -34.8,68.44 -47.39,104.98 -4.29,12.45 -12.06,14.71 -18.19,39.98 -5.83,23.98 -20.63,36.73 -37.38,53.48 -67.71,67.71 11.77,102.08 -38.69,181.19 -58.62,91.9 21.45,150.66 -46.87,221.73 -75.63,78.69 -26.05,87.4 -153.65,146.75 -52.52,24.43 -64.24,45.73 -97.57,93.46 -9.51,13.62 -18.57,27.55 -28.25,41.05 -25.43,57.06 -27.6,140.29 -16.96,202.74 7.32,42.98 -19.92,70.26 -3.31,137.63 0.86,3.51 26.38,31.37 26.38,34.86 v 0 c 8.29,-9.15 15.48,-29.09 39.12,-35.16 12.45,-3.19 42.7,4.16 54.57,16.54 27.34,28.52 11.58,6.53 11.58,34.72 0,8.27 38.32,43.85 51.69,44.51 20.42,1.02 31.08,15.43 30.48,30.85 37.7,70.78 41.83,65.7 65.27,140.91 21.48,68.98 89.67,106.25 159.69,92.05 47.57,-9.65 133.9,-1.96 132.57,62.4 -0.84,40.81 69.14,29.06 64.5,171.28 -0.4,12.31 18.31,83.57 26.93,90.75 43.7,-7.16 16,12.6 57.14,7.21 22.4,-2.93 91.45,-60.17 109.99,-48.38 19.56,12.45 82.24,-27.89 139.72,12.57 39.92,28.11 1.41,56.39 61.18,70.96 5.55,21.72 6.02,23.22 13.49,40.8 13.04,30.69 -16.37,61.44 -21.71,88.75 -6.29,32.15 -11.85,48.42 12.19,76.82 15.51,18.32 28.02,18.71 42.38,31.49 l 1.86,1.66 v 0 c 33.01,7.27 33.45,24.2 57.12,-12.61 15.71,-24.42 -15.71,-64.16 24.74,-85.03 12.12,-6.25 26.98,14.78 52.78,19.16 17.08,2.9 83.87,6.34 99.22,-1.37 78.77,-39.53 52.7,-73.03 91.09,-132.65 20.42,-31.72 22.04,-42.45 37.14,-74.27 10.37,-21.86 33.6,-48.74 54.85,-21.76 17.3,21.97 56.02,10.11 85.96,11.9 100.68,6.04 31.66,29.22 49.29,73.38 7.33,18.39 50.87,48.36 67.94,62.02 61.26,57.98 59.93,56.21 124.41,91.89 76.49,42.32 112.22,77.93 165.17,-36.17 58.74,38.43 31.11,-9.99 112.42,18.94 48.35,17.2 8.93,28.8 84.76,20.12 57.54,-6.58 10.28,45.6 108.06,48.24 145.55,3.94 71.59,51.09 191.77,72.34 48.12,8.51 80.22,-33.05 137.3,-44.94 36.83,-7.67 150.99,11.9 172.22,42.86 18.45,26.89 24.75,17.71 51.69,38.74 37.81,18.78 33.74,7.46 62.94,17.47 75.86,26.02 61.21,27.25 141.41,3.38 51.86,-15.43 94.4,10.98 155.16,-37.21 30.34,-24.06 64.81,-97.34 112.73,-64.42 29.41,20.21 62.16,-10.18 97.22,0.83 32.42,10.18 83.68,-32.49 121.47,16.61 10.76,13.98 22.4,20.81 35.7,31.27 49.08,88.59 39.64,25.39 50.86,121.38 5.35,45.82 94.52,84.44 132.95,93.46 107.6,25.24 95.82,92.38 152.7,169.23 61.66,83.31 34.44,65.59 134.52,59.25 115.05,-7.28 135.15,-22.74 234.67,-68.36 57.75,-26.47 92.5,-101.92 118.22,-156.67 14.22,-30.28 60.93,-176.91 104.37,-161.77 33.96,11.83 101.66,-14.58 137.63,-21.79 62.9,-12.61 128.76,-25.22 193.33,-26.6 94.1,-2.01 161.93,-36.49 260.62,-18.05 140.56,26.26 138.52,-51.26 272.8,-51.26 19.88,0 35.2,0.07 55.29,-1.65 82.21,-41.37 75,-16.42 144,-34.73 110.12,-29.22 121.2,5 217.2,-80.79 39.21,-35.03 77.04,-56.92 106.92,-104.7 30.29,-48.43 80.89,-46.63 80.89,-143.59 0,-58.32 27.12,-133.23 96.34,-122.37 64.97,10.2 99.8,-30.49 154.07,-44.99 16.44,4.03 26.85,-2.89 55.62,-18.57 32.56,-17.76 10.16,10.57 45.78,0.29 22.31,-6.44 80.17,-42.73 122.45,-62.16 v 0 c 15.45,-48.62 21.18,-57.11 37.54,-99.05 10.5,-26.92 16.25,-126.91 73.33,-71.77 149.51,144.45 186.59,42.97 136.83,-7.18 -32.38,-32.65 -20.93,-40.85 -74.56,-81.98 -16.93,-12.98 -52.76,-79.06 -38.17,-78.43 50.14,2.15 197.38,-54.99 231.65,14.32 25.75,52.09 56.69,56.67 108.06,69.6 51.45,12.94 85.54,-2.21 110.36,-46.55 21.19,-37.83 -35,-60.08 -1.79,-70.44 31.94,-9.96 97.43,-0.2 113.02,33.5 12.38,26.78 38.44,75.67 72.19,54.28 68.11,-43.14 45.47,17.87 152.66,1.66 91.76,-13.88 14.16,-53.71 95.96,-124.03 35.45,-30.47 54.61,4.45 75.07,29.63 55.68,68.5 82.04,-4.48 128.33,-43.99 10.75,-9.17 47.82,-56.38 56.46,-67.48 32.63,24.42 28.75,-4.98 56.74,-33 44.22,-44.27 45.58,60.32 71.11,77.72 32.73,22.31 24.85,32.77 78.29,15.97 51.03,-16.03 46.42,-14.88 97.14,-20.79 27.12,-3.16 58.54,-6.71 80.89,8.13 10.63,7.06 25.62,54.56 35.96,64.91 23.05,23.05 58.09,19.12 70.16,64.07 7.12,26.5 46.86,72.14 68.74,87.64 34.3,24.32 22.94,42 89.72,49.61 66.78,7.62 70.87,-10.11 130.78,12.95 57.64,22.19 -0.77,96.61 46.02,181.33 35.73,64.68 86.89,-80.66 130.5,-1.88 17.59,31.78 -5.6,122.27 108.34,40.2 40.35,-29.07 196.32,-101.84 159.84,20.84 -10.83,36.45 -135.98,177.43 -44.65,178.45 44.04,0.49 133.99,-129.72 148.54,-46.16 4.36,25.06 -26.56,179.74 38.89,153.08 5.77,-2.35 19.09,-20.02 34.75,-37.72 8.11,-55.09 15.65,-86.13 46.84,-127.03 27.19,-35.64 33.7,-35.33 75.64,-9.63 49.93,30.59 79.54,-0.03 120.34,43.27 9.25,9.83 59.12,29.22 71.91,29.06 58.18,-0.71 89.61,-8.82 146.52,13.23 55.08,21.35 -3.86,105.25 30.28,132.29 83.6,66.21 1.29,69.86 72.1,112.59 31.14,18.8 3.33,91.99 86.79,89.16 21.3,-0.72 7.94,16.38 73.05,3.73 64.88,-12.6 58.71,1.41 132.86,-32.27 115.52,-52.47 98.04,-7.67 103.61,79.8 0.77,12.06 6.81,73.4 12.94,79.1 29.43,27.29 170.32,14.21 104.19,79.93 -5.94,5.91 -70.33,107.05 -51.27,110.09 23.5,3.75 58.83,-1.01 64.5,43.56 0.85,6.7 1.52,5.08 -1.23,11.44 -24.02,98.78 -14.27,59.17 -62.98,126.1 -32.07,44.05 42.73,70.59 -1.09,183.79 -15.39,39.73 -42.34,84.78 -29.62,128.32 12.01,41.13 -93.46,105.49 -10.63,165.51 57.59,41.73 -19.62,75.07 23.29,158.75 11.12,21.68 30.43,-38.62 52.77,-3.88 28.4,44.17 62.71,-55.27 109.01,4.4 27.18,35.03 -0.08,110.49 58.58,118.82 87.79,12.48 13.05,85.71 85.33,132.58 56.68,36.76 98.54,-20.73 115.28,-70.82 19.71,-59.01 116.55,-79.54 119.63,-15.45 1.64,34.16 8.36,51.31 15.03,82.25 25.33,153.38 9.7,76.84 -43.57,145.53 -22.81,29.41 7.19,46.95 7.19,92.88 0,43.99 -6.03,61.81 -1.52,107.21 5.9,59.39 -110.32,64.96 -42.85,132.43 18.2,18.21 143.94,-72.56 114.39,17.62 -18.22,55.6 16.89,35.99 -16.82,111.36 -19.54,43.67 8.62,72.76 -3.17,127.9 -19.98,93.37 48.23,11.09 80.46,77.87 31.99,66.28 97.67,-26.52 116.47,86.93 20.58,124.26 158.02,-19.21 208.73,19.28 25.92,19.67 -6.03,118.94 59.68,90.15 28.43,-12.46 113,-19.63 67.7,29.2 -22.66,24.42 -30.75,52.31 -30.75,84.47 22.28,72.25 30.95,119.69 16.96,193.24 -7.06,37.08 10.52,73.67 1.65,110.46 -13.07,54.26 32.94,80.98 -7.61,139.05 -12.02,17.21 -87.11,39.59 -105.59,46.95 49.13,120.93 35.46,56.31 127.33,102.52 34.85,17.52 -38.13,77.4 82.26,85.85 63.04,4.43 -4.33,69.01 82.03,50.84 21.58,-4.54 94.13,12.49 100.3,41.91 -23.97,20.84 -60.43,67.74 -94.06,44.3 -41.43,-28.88 -46.28,21.49 -108.85,0.82 -26.72,-8.82 -19.75,-7.39 -49.31,-6.89 -28.83,0.49 -48.95,-34.42 -98.51,14.55 -42.58,42.06 -73.88,62.73 -127.33,21.54 -9.09,-7 -10.21,-27.06 -21.64,-38.86 -13.8,-14.24 -24.15,-33.94 -29.49,-52.63 -7.77,-27.23 -17.05,-42.27 -29.08,-66.48 -6.92,-13.94 -0.27,-20.5 -20.45,-28.82 -2.2,-0.9 -1.13,-1.84 -4.28,-2.27 -1.14,1.67 -32.65,58.61 -43.82,63.38 -52.1,22.21 -79.74,-25.57 -74.27,60.67 3.15,49.63 -10.72,112.6 -69.74,120 -22.45,2.82 -72.53,-95.93 -90.95,-112.59 -48.21,-43.6 -48.25,-18.92 -74.27,-35.15 -2.66,-1.65 -30.21,-89.39 -42.43,-105.69 -9.54,-12.73 -2.25,-37.8 -43.7,-41.2 -65.36,-5.36 -36.84,129.43 -71.11,124.31 -7.39,-1.1 -43.59,-104.49 -64.49,-117.12 -17.81,-10.77 -23.99,39.47 -42.86,64.49 -21.29,28.23 20.88,72.56 -27.68,87.78 -40.19,12.59 -28.81,-7.49 -59.16,38.03 -22.18,33.28 -92.63,30.5 -65.72,-16.53 13.6,-23.76 25.47,-63.31 12.43,-90.01 -12.84,-26.29 42.58,-35.26 16.53,-92.17 -11.88,-25.97 16.16,-105.1 -54.99,-120.72 -45.83,-10.07 -30.48,80.24 -108.72,67.94 -14.82,-2.33 -38.31,6.26 -51.69,12.8 -27.48,10.34 -124.39,31.42 -103.61,77.16 5.37,11.81 -34.96,0.81 -65.49,22.06 -55.61,38.71 -41.7,25.42 -20.64,99.36 12.57,44.17 21.24,84.56 37.04,127.19 34.38,92.73 -9.14,70.46 -16.11,154.87 -6.44,77.9 198.43,133.53 106.12,230.43 -26.76,28.09 -142.14,131.79 -122.8,172.12 15.18,31.65 72.65,20.51 63.12,100.73 -23.19,32.78 -36.01,59.57 -79.23,56.37 -47.82,-3.54 -48.94,8.16 -91.76,39.12 -87.45,63.24 -147.17,19.6 -176.27,54.99 -5.16,6.28 18.75,62.28 22.06,82.03 6.54,39.03 38.07,188.72 -22.06,197.86 -46.31,7.05 -76.07,-0.34 -76.07,67.24 0,96.15 -77.16,15.98 -108.29,60.9 -19.73,28.47 -43.74,-5.48 -65.35,48.1 -35.38,87.73 -90.6,-69.06 -97.42,70.16 -1.89,38.62 -59.94,75.73 -21.78,95.34 39.13,20.11 41.9,63.33 53.2,101.16 3.13,10.49 4.63,23.78 6.47,34.58 -37.86,65.84 -40.12,26.95 -60.47,52.63 -19.43,24.52 77.54,167.68 -53.63,182.33 -21.98,2.46 -61.13,-9.01 -68.22,-36.28 -8.35,-32.09 -43.77,-69.78 -81.41,-53.16 -48.38,21.37 -131.84,-44.67 -174.92,55.66 -4.71,10.97 -5.14,63.28 -5.14,76.48 v 0 c 57.9,24.35 37,17.28 53.35,56.91 3.37,8.19 5.09,51.96 18.62,84.47 12.29,29.52 10.69,29.94 30.33,57.08 90.06,124.4 116.8,92 243.04,161.06 65.37,35.75 121.06,74.95 202.88,82.82 115.86,11.15 122.22,25.39 226.55,-7.03 42.11,-13.08 -14.44,-66.62 -9.5,-73.56 16.22,-22.83 -1.59,-7.55 32.51,-10.22 41.87,-3.27 8.81,-131.72 76.21,-90.66 4.57,2.79 41.47,50.84 69.88,69.45 67.58,44.26 61.82,51.75 110.09,-33.36 34.65,-61.11 99.91,-69.03 160.12,-104.32 27.41,-16.07 58.82,-21.94 94.11,-42.42 60.31,-34.99 60.35,-27.99 117.7,-79.52 66.97,-60.16 61.77,22.11 147.74,-23.15 18.09,-9.53 70.75,-28.04 83.62,-6.9 13.66,22.46 87.8,24.48 120.35,35.02 36.02,11.67 49.46,4.63 90.52,29.19 48.22,28.86 54.74,14.26 98.94,66.85 16.59,19.73 28.69,21.71 39.55,48.62 11.09,27.47 32.96,62.94 43.55,96.06 22.33,69.82 25.21,64.64 13.23,140.98 -1.38,8.79 3.74,27.31 4.54,36.24 0.9,10.08 -6.5,19.18 -9.75,28.77 l 0.46,0.06 c 9.7,1.24 20.87,0.72 32.28,-5.01 26.66,-13.37 39.82,-30.18 60.61,-35.38 27.13,-6.8 11.67,-33.41 15.98,-65.07 0.82,-6.07 0.42,-12.02 0.42,-18.19 l 21.5,-95.91 c -2.35,-24.87 -2.81,-48.03 -1.66,-72.76 0.66,-14.23 -8.09,-52.2 0.43,-72.76 8.28,-19.99 25.69,-159.18 1.37,-173.35 -57.43,-33.45 -64.24,-2.55 -116.04,1.51 -60.6,4.75 -84.47,7.5 -57.31,-66 2.17,-5.88 7.01,-15.42 11.15,-20.13 41.05,-87.44 56,-68.51 85.56,-119.06 17.64,-30.17 91.95,-79.03 125.97,-122.37 20.56,-26.19 61.22,-22.96 89.43,-65.58 3.99,-6.02 17.4,-2.68 21.5,-20.41 -26.79,3.65 -39.51,-2.39 -61.58,-15.85 -10.55,-6.43 -24.57,-29.47 -25.85,-43 -1.51,-15.92 -1.03,-36.18 16.89,-41.69 19.87,-6.12 32.85,-34.97 51.06,-52.78 29.61,-28.96 12.86,-33.63 51.23,-25.21 29.65,6.51 56.46,-15.32 75.95,-35.01 11.87,-11.99 17.3,-27.8 16.54,-44.65 15.45,-38.22 11.34,-53.76 20.95,-89.29 3.28,-12.12 0.3,-30.34 6.34,-50.99 4.4,-15.06 5.34,-72.31 27.69,-50.71 3.74,3.61 16.2,67.42 29.43,89.65 10.31,17.32 24.04,26.51 36.59,46.3 25.37,40.03 32.69,0.25 69.52,-27.09 89.21,-66.24 -19.95,85.14 32.87,83.03 16.63,-0.66 59.53,-50.1 73.78,-62.62 19.37,-17.03 49.76,-48.23 67.04,-67.95 6.65,-7.58 41.97,-40.75 49.63,-47.08 9.65,-7.96 19.1,-18.83 29.34,-26.65 51.74,-64.14 39.78,-55.63 44.51,-124.45 2.3,-33.5 29.91,-63.78 49.75,-91.75 23.53,-33.18 60.46,-49.13 96.34,-66.15 33.09,-15.69 45.27,-29.81 61.99,-63.26 16.3,-32.62 -34.83,-69.62 -57.46,-84.76 -53.47,-35.79 -19.18,-123.87 -81.03,-183.13 -83.29,-79.81 -72.84,-33.14 -141.79,-74.41 -41.39,-24.78 -101.93,-58.11 -126.24,-101.02 -3.89,-6.87 -5.66,-13.44 -9.78,-21.35 -28.68,-39.25 -33.35,-46.34 -36.52,-89.44 -2.89,-39.32 22.72,-93.25 53.05,-113.53 0.24,-0.16 60.56,-20.33 67.8,-13.8 25.36,22.84 12.05,34.51 40.92,61.75 4.09,3.86 37.21,69.09 38.46,73.99 24.63,6.32 25.66,-39.62 75.22,8.27 21.51,20.79 -2.11,58.57 93.88,110.13 33.53,18.01 62.36,22.22 65.86,66.38 4.06,51.2 -42.68,68.29 44.65,119.49 25.34,14.85 72.24,106.69 107.91,68.88 44.53,-47.18 81.21,-103.61 106.92,-163.71 20.93,-48.9 71.67,-98.47 63.27,-154.45 -9.44,-62.87 40.98,-30.03 73.99,-98.7 17.55,-36.5 -0.6,-37.69 41.76,-85.7 22.83,-25.87 21.39,-81.7 29.91,-119.86 17.16,-76.88 -74.8,-109.06 -15.88,-173.5 43.18,-47.22 33.91,-55.42 103.38,-31.99 52.91,17.85 74.18,-38.25 122.89,-47.38 43,-8.06 95.7,-30.05 132.48,-53.63 28.18,-18.07 156.65,-59.25 191.26,-62.27 52.45,-4.59 57.78,-6.17 114.62,1.23 l 25.38,3.3 c 58.76,15.85 160.81,58.03 217.85,19.85 25.68,-17.19 49.93,-24.22 67,-54.57 11.36,-20.2 43.37,-44.47 49.18,-62.98 10.46,-33.36 36.24,-29.37 34.73,-67.66 -0.52,-13.25 57.5,-61.54 69.45,-78.95 22.16,-32.28 -0.32,50.29 -0.57,50.98 -14.67,41.12 -29.67,67.81 -46.15,107.77 -7.07,17.12 -72.17,74.9 -36.24,73.99 21.7,-0.55 81.39,23.36 97.85,38.17 34.17,30.77 4.56,-105.93 157.62,-71.67 22.92,5.13 40.99,3.8 68.4,13.66 32.27,11.6 81.23,9.94 126.07,31.84 43.65,21.31 123.16,7.88 147.73,-35.29 17.17,-30.17 -8.42,-15.53 7.85,-59.39 11.1,-29.92 27.6,-80.45 4.82,-108.48 -23.14,-28.48 -31.05,-63.01 -4.4,-91.04 18.31,-19.27 2.47,-93.73 63.5,-156.44 4.05,-4.15 70.06,-93.24 54.57,-39.69 -16.11,55.7 -32.58,89.75 -50.69,142.64 -15.92,46.5 -26.94,109.42 11.43,147.03 91.05,89.24 27.14,110.69 104.75,173.92 46.2,37.64 98.64,5.5 111.31,85.56 6.23,39.35 51.9,54.66 83.4,49.61 42.14,-6.76 27.95,-21.21 98.27,-21.21 26.48,0 65.2,6.75 75.5,36.8 10.55,30.77 -9.65,75.76 16.96,86 36.81,14.15 2.36,91.26 63.13,84.33 4.25,-0.49 149.96,-27.54 92.55,11.86 -27.9,19.15 -111.62,22.07 -144.1,16.4 -41.48,-7.25 -37.29,-9.67 -83.2,-12.57 -74.71,-4.72 -98.52,-41.94 -191.59,-14.89 -74.5,21.66 -155.63,-12.58 -227.92,-32.65 -65.89,-18.29 -118.63,-71.55 -208.93,-85.56 -86.22,-13.38 -40.46,-4.53 -120.29,9.07 -75.09,12.8 -80.45,-2.16 -139.47,2.5 -20.83,1.65 -59.47,9.92 -22.07,29.63 58.9,31.05 85.31,127.06 104.89,115.18 25.36,-15.37 32.1,-45.04 89.44,-46.15 122.67,-2.39 116.63,38.55 215.5,58.16 91.44,18.14 172.1,-32.16 227.54,80.89 0.43,105.84 -8.9,84.37 -74.42,155.3 -40.11,43.42 -55.79,25.19 -108.19,28.11 -62.54,3.48 -138.53,4.66 -191.92,42.57 -57.97,41.15 35.5,127.31 88.87,46.87 31.86,-48.03 65.36,-56.5 117.27,-37.61 17.03,6.19 23.68,57.98 61.47,88.87 32.81,26.83 29.14,11.58 78.38,11.58 113.03,0 52.62,52.19 117.31,83.67 73.01,35.53 27.29,38.67 132.96,55.8 92.02,14.91 20.57,20.91 44.78,101.96 8.45,28.25 89.3,29.85 123.37,41.77 46.06,16.11 75.32,16.73 125.92,42 24.48,12.23 142.54,64.34 165.78,61.33 40.91,-5.31 71.81,-65.55 160.13,-78.96 105.58,-9.46 35.33,6.71 117.5,-19.84 17.33,-5.6 72.45,-15.94 86.18,3.17 11.76,16.34 73.4,-8.76 105.13,-8.13 54.89,1.1 36.02,-11.56 96.33,15.02 139.25,61.4 144.03,-127.76 208.79,-79.51 29.47,21.96 22.67,15.24 49.18,42.99 18.83,19.72 32.33,-8 59.25,-23.01 42.9,-23.91 82.46,-101.6 104.6,-102.81 32,-1.75 -36.79,81.19 53.49,99.65 27.65,5.65 107.49,69.12 129.93,90.52 22.04,21.03 93.06,106.98 113.54,110.66 12.06,2.16 18.6,-21.69 78.28,-13.37 15.75,2.19 93.9,-8.51 55.66,-45.32 -23.26,-22.39 -22.83,-64.94 13.52,-83.11 66.21,-33.09 5.87,-35.6 82.11,-57.87 58.11,-16.98 61.21,-31.88 72.53,42.62 3.1,20.4 11.22,72.74 9.35,91.61 -4.84,48.68 8.73,18.51 -11.34,70.49 -14.9,38.6 -9.22,55.58 -13.46,92.79 2.23,36.36 -3.69,87.65 36.95,87.65 36.15,0 18.13,-9.22 57.16,4.53 38.75,13.66 38.4,-19.51 92.08,30.19 57.28,53.03 -112.81,7.65 -92.36,111.46 4.84,24.6 11.8,78.42 -29.06,62.61 -33.94,-13.15 -13.16,3.66 -45.59,-28.69 -56.01,-55.87 -42.26,19.97 -106.16,37.75 -35.98,10 -74.74,-21.73 -115.3,5.27 -50.25,43.41 -83.29,79.42 -143.73,111.22 -22.55,11.86 -89.24,55.45 -109.28,72.47 -21.7,18.43 -82.73,43.69 -101.31,8.27 -9.41,-17.95 -52.7,-59.94 -67.79,-23.29 -4.36,10.59 29.47,63.73 -11.01,57.74 -37.88,-5.6 -140.63,57.46 -175.29,76.64 -18.12,10.02 -45.24,35.15 -72.76,49.61 -19.97,10.49 -110.84,75.58 -132.29,92.31 -64.9,50.62 -26.68,36.35 -56.8,106.92 -9.9,23.22 -73.87,38.61 -100.87,30.62 -51.65,-15.3 -60.85,53.85 -116.41,69.6 -65.2,18.47 -107.89,47.6 -152.71,97.13 -37.1,41.02 -67.38,28.78 -122.23,107.21 -22.81,32.62 -61.54,72.03 -46.15,119.63 10.28,31.83 41.76,11.6 75.78,47.96 35.09,37.49 94.45,52.77 141.12,27.39 87.5,-47.56 192.25,-114.87 297.38,-75.78 39.55,14.7 101.06,33.31 141.93,19.84 66.41,-21.88 110.55,-34.85 174.63,-68.65 28.39,-14.97 105.63,-69.35 65.29,5.82 -25.76,48.01 -56.72,20.26 -96.05,100.87 -16.15,33.12 -34.3,30.42 -33.07,76.07 29.19,86.49 39.93,59.81 93.83,100.87 46.54,35.44 34.66,35.26 67.8,78.52 40.02,52.24 68.58,2.88 133.14,86.04 48.57,62.56 48.93,44.97 99.79,7.14 34.34,-25.54 11.64,-47.79 73.56,-63.93 13.19,-3.43 148.28,38.84 160.27,55.51 32.67,45.44 18.17,40.29 65.06,83.54 84.19,77.65 84.42,186.24 109.65,288.11 3.97,16 11.51,73.68 7.19,86.84 6.29,32.08 15.49,125.64 10.06,162.2 -9.04,60.97 -74.71,52.24 -77.72,92.03 -4.29,56.83 -5.43,116.13 6.05,173.21 9.13,45.45 9.94,129.04 -12.81,170.61 -23,42.06 -10.22,35.56 -52.35,70.02 -18.39,15.04 -26.56,14.55 -50.98,36.52 -32.34,29.11 -164.83,31.07 -93.45,100.74 62.82,61.31 70.91,110.6 173.21,109.14 30.5,-0.43 39.18,6.13 78.43,3.16 27.42,-2.08 87.56,12.13 90.81,51.69 3,36.4 10.78,33.05 23.01,59.25 51.52,80.91 37.88,32.62 95.91,66.57 28.29,16.55 39.55,51.94 78.01,27.55 20.02,-12.71 131.1,-30.5 157.89,-29.63 72.92,2.37 87.67,37.97 169.53,-13.66 43.91,-27.69 113.39,-28.06 151.57,-63.92 32.46,-30.5 49.82,-19.51 65.34,-71.96 17.37,-58.71 39.87,-25.59 68.61,-39.41 88.35,-42.46 74.08,-72.9 89.57,-83.05 21.1,-13.82 11.34,-11.61 42.72,-18.47 62.98,-13.78 45.97,-40.69 68.5,-71.4 11.48,-15.63 7.92,-48.12 32.79,-77.86 9.62,-11.49 18.88,-37.23 34.59,-56.79 25.63,-31.9 27.88,-49.14 62.84,-85.42 37.52,-38.94 49.62,-65.09 107.06,-78.95 17.34,-4.19 200.48,-109.59 248.05,-128.99 31.54,-12.86 63.15,-28.42 96.34,-35.29 69.02,-2.44 71.89,1.69 134.23,-7.84 53.93,-8.25 106.67,-24.28 159.13,-37.38 26.4,-6.59 117.33,-4.23 115.09,40.26 -1.77,35.26 27.54,64.74 65.62,30.85 44.88,-39.93 61.87,-30.53 75.36,-83.34 7.17,-28.07 13.02,-26.11 14.32,-63.93 0.66,-19.2 27.14,-67.04 55.14,-65.48 37.95,2.11 82.22,-20.03 89.44,-59.53 14.72,-80.58 85.66,-70.86 144.81,-46.31 14.88,6.18 39.34,8.74 21.78,-16.96 -43.17,-63.15 43.24,-46.38 66.15,-88.87 11.93,-22.14 -92.27,-27.3 -26.6,-94.26 37.6,-38.33 122.99,-130.73 174.72,-137.82 81.79,-11.19 114.12,-16.01 194.75,13.8 73.7,27.25 114.46,56.92 174.72,106.4 48.62,39.91 50.83,121.17 97.86,118.64 52.6,-2.83 12.04,-52.16 96.99,-11.15 48.46,23.4 111.87,-15.07 147.32,-46.87 65,-39.65 73.47,-32.28 140.56,-28.25 78.23,4.69 80.56,76.43 157.05,31.98 5.49,-3.19 86.06,-45.12 89.2,-45.07 90.57,1.34 120.26,-5.5 204.11,-40.77 43.35,-18.24 19.74,-68.06 1.09,-95.12 -28.34,-41.1 32.59,-72.33 -61.61,-84.05 -44.15,-5.49 -88.46,-35.9 -27.03,-39.55 15.58,-0.93 106.72,-12.22 63.4,-38.17 -75.76,-45.39 70.61,-87.64 34.59,-147.03 -19.43,-32.05 68.77,-31.22 46.87,-67.66 -27.59,-45.91 -26.35,-37.22 -11.86,-94.4 21.33,-84.17 82.93,47.4 209.07,-10.49 27.06,-12.41 33.66,-58.48 53.06,-78.52 10,-10.34 -37.39,-17.93 -53.48,-29.63 -22.38,-16.26 -25.64,-22.43 -40.54,-40.82 -8.61,-10.63 -81.82,-23.47 -104.99,-38.7 -24.26,-15.94 -75.29,23.97 -124.58,7.85 -38.35,-12.54 -60.69,-44.49 -79.1,-50.32 -13.31,-4.21 -34.57,37.32 -78.95,21.78 -17.7,-6.2 16.37,-69.83 -114.62,-20.27 -40.28,15.24 -92.02,19.59 -134.65,24 -42.61,4.41 -68.04,40.79 -90.01,74.42 -23.83,36.47 -21.47,75.39 -89.96,86.56 -64.61,10.53 -64.92,13.24 -129.84,-15.31 -32.34,-14.22 -69.45,-32.87 -69.45,-71.54 0,-24.83 -16.58,-69.28 -41.48,-76.2 -52.64,-14.63 -26.53,-7.04 -43.71,50.17 -10.16,33.84 -31.61,16.16 -46.96,63.64 -8.06,24.94 -16.23,33.67 -16.54,62.56 -0.59,55.25 -94.47,71.49 -133.28,95.25 -24.97,15.29 -54.19,37.81 -76.87,49.61 -36.75,9.79 -62.32,17.85 -94.26,33.64 -40.23,19.87 -95.91,-72.55 -95.91,11.57 0,24.25 -75.4,31.95 -95.49,35.39 -30.32,5.2 -88.57,-11.8 -102.95,-11.15 -47.94,-22.47 -77.22,-37.05 -120.32,-64.93 -3.04,-1.96 -111.59,-52.9 -118.64,-54.42 -32.23,-6.97 -125.09,-27.49 -137.96,-60.52 -16.43,-42.17 -104.39,-31.16 -71.39,-112.46 17.82,-43.89 -17.76,-48.27 19.7,-57.59 29.82,-7.41 61.28,-40.43 70.97,-68.6 22.84,-66.47 5.78,-52.34 -8.55,-101.44 -3.81,-13.04 -36.71,-62.75 -46.45,-72.19 -19.63,-19.03 -15.71,-58.93 -14.17,-82.83 1.25,-19.29 -26.16,-43.83 -40.78,-57.07 -22.93,-20.77 -18.36,12.01 -48.09,-38.69 -43.09,-73.47 -86.58,-26.11 -113.45,-72.53 -6.61,-11.42 -9.39,-13.85 -19.41,-22.3 -101.23,-32.98 -29.77,-30.73 -21.64,-78 3.37,-19.64 -54.66,6.89 -75.93,6.89 -14.11,0 -152.17,8.08 -114.91,-27.83 71.63,-69.03 28.55,-59.51 18.57,-129.26 -6.93,-48.43 -55.97,1.21 -86.65,13.51 -11.48,4.6 -73.63,51.36 -84.62,25.09 -6.62,-15.84 61.78,-60.68 51.4,-84.91 -5.41,-12.63 50.1,-60.77 19.56,-83.11 -12.34,-9.02 -57.9,46.44 -76.63,58.74 -30.49,20.02 -103.42,118.19 -130.07,111.73 -53.25,-12.89 31.28,-71.55 31.28,-116.98 0,-33.01 11.61,-27.79 39.54,-56.23 21.64,-22.03 30.67,-32.93 33.22,-64.63 1.96,-24.37 -48.28,10.59 -75.93,-16.53 -38.52,-37.78 -71.9,75.43 -114.24,59.24 -28.48,-10.88 28.96,-88.54 -18.19,-107.62 -12.38,-5.01 -50.14,55.28 -81.31,31.41 -18.38,-14.06 21.49,-55.41 -9.64,-62.41 -22,-4.95 2.99,-47 -21.64,-59.95 -19.93,-10.49 19.57,-74.66 -19.14,-100.74 -18.85,-12.7 -41.65,41.56 -46.87,53.2 -50.71,10.05 -39.45,16.24 -55.53,-12.83 -6.44,-11.63 -11.55,-74.65 -51.13,-37.47 -7.45,7.01 -46.33,-42.6 -93.59,-41.48 -37.14,0.88 -62.25,-10.23 -94.92,-18.76 -13.21,-3.45 -51.31,14.11 4.16,37.24 31.79,13.25 78.94,71.95 70.25,108.71 -9.52,40.25 53.19,43.71 -33.21,76.35 -22.39,8.46 -68.25,-9.46 -34.73,-43 64.98,-65.01 0.91,-75.13 -13.37,-108.05 -11.97,-27.57 -39.44,-11.93 -62.99,-87.5 -6.36,-20.43 -46.18,-48.56 -71.9,-52.63 -22.53,-3.56 -93.24,-26.57 -104.61,-0.14 -26.08,60.64 -78.82,58.28 -118.49,16.25 -82.13,-87.01 -25.15,-45.16 -63.27,-146.33 -32.04,-85.05 -3.5,32.36 -58.59,41.34 -33.48,5.46 -37.73,6.7 -65.71,-16.39 -7.74,-6.38 -32,-32.45 -29.35,-44.84 14.8,-69.21 -27.32,-88.35 -0.56,-174.43 4.81,-15.47 3.65,25.86 37.23,32.26 77.02,14.69 138.56,-12.23 199.76,4.26 37.85,10.2 107.39,100.35 120.48,137.67 26.28,74.93 66.83,39.7 94.4,51.27 40.08,16.82 73.73,45.65 112.31,5.76 12.95,-13.39 23.05,-80.43 54.57,-37.75 17.54,23.75 85.84,-7.05 23.72,46.59 -8.78,7.57 -42.51,46.44 -11.06,46.44 31.12,0 10.38,30.07 69.03,54.29 45.2,18.67 13.47,-31.17 9.12,-51.78 -5.92,-28.05 1.71,-87.61 -0.57,-92.08 -9.5,-18.63 -75.36,-58.54 -75.36,-105.13 0,-36.74 -22.22,-109.13 1.65,-131.07 44.06,44.06 35.1,97.69 103.1,121.57 72.97,25.63 9.98,82.06 61.7,61.04 52.15,-21.19 13.27,-83.41 53.2,-76.49 34.97,6.06 -6.87,55.24 101.31,84.05 64.04,17.06 53.41,72.16 105.68,64.21 42.08,-6.39 71.18,-112.52 112.03,-87.5 0.16,0.1 15.79,37.68 18.19,42.05 22.01,40.07 16.74,58.18 15.45,106.4 -0.13,5.04 -1.14,43.84 -7.04,40.63 -36.39,-19.76 -22.82,-54.2 -111.88,-28.53 -46.42,13.37 -13.17,26.73 -53.34,4.96 -31.72,-17.19 -78.07,27.12 -35.01,73.99 61.91,67.38 -7.36,81.67 10.06,116.32 6.94,13.8 18.5,-11.85 41.48,48.9 29.46,77.85 28.97,20.57 72.62,11.06 29.19,-6.37 38.11,-42.62 73.18,-42.19 12.34,0.15 31.64,40.57 41.07,-42.86 4.43,-39.26 -29.94,-15.6 13.36,-62.42 65.5,-70.8 -43.56,-235.94 91.24,-240.2 57.8,-1.83 84.26,-36.63 118.78,41.49 25.59,57.9 45.73,-17.77 55.94,105.83 1.43,17.3 -1.92,44.96 -24.52,24.8 -27.88,-24.86 -58.33,-2.71 -103.47,1.09 -44.85,3.78 10.03,23.55 34.01,63.13 25.09,41.38 22.1,7.76 15.03,61.32 -5.55,42.05 70.13,-58.69 85.85,-18.47 8.3,21.24 2.75,42.38 13.37,78.14 9.32,31.39 -1.57,23.03 17.77,55.8 8.66,14.68 10.44,67.09 18.47,95.63 10.27,36.5 26.59,124.65 16.53,160.4 -21.3,75.76 67.86,27.38 74.42,5.96 4.42,-14.46 -19.57,-53.3 -24.67,-83.82 -13.4,-80.32 -36.42,-96.1 -33.07,-189.03 1.68,-46.51 -18.33,-84.06 -18.33,-134.75 0,-41.03 -21.05,-78.8 -21.36,-119.63 -0.32,-43.5 -15.55,-63.01 -6.75,-121.29 11.79,-78.09 6.54,-41.86 46.3,-109.14 55.35,-48.99 80.59,-41.94 138.81,-74.97 69.28,-39.31 153.26,-8.43 186.3,-90.3 19.63,-48.65 66.08,-99.71 108.95,-129.88 49.66,-34.93 42.34,-76.34 54.99,-125.58 13.88,-54 -20.63,-92.43 -1.22,-126.06 7.15,-12.39 70.22,48.18 79.37,52.35 73.31,33.41 -38.96,122.68 7.7,136.4 30.68,9.02 13.28,73.85 83.4,59.44 24.55,-5.04 122.69,-94.59 136.31,-116.08 40.39,-63.74 100.02,-81.58 165.31,-112.41 46.65,-22.02 64.73,-12.37 98.84,-60.52 11.84,-16.7 35.09,-30.99 49.19,-45.73 83.69,-62.51 45.61,-55.54 90.15,-99.22 64.54,-63.31 136.07,-73.86 207.51,-125.68 29.34,-21.28 113.63,-68.78 149.77,-73.84 89.33,-12.51 152.42,-27.03 245.45,-27.03 80.39,0 128.11,-16.13 178.17,51.26 10.75,14.47 19.2,10.65 35.15,39.69 21.07,38.36 33.83,-14.91 61.61,-44.08 67.58,-70.97 52.6,-85.56 143.45,-148.98 48.83,-34.09 115.13,-78.14 176.94,-78.14 59.41,-19.88 229.28,-61.19 290.9,-61.19 45.17,0 97.02,52.63 111.37,92.61 20.91,58.27 42.13,39.73 61.41,-1.8 38.71,-83.4 18.37,-52.24 83.68,-115.89 109.7,-106.93 104.34,-120.29 250.92,-196.22 51.08,-26.46 58,-9.16 109.01,-56.08 68.53,-63.04 169.68,-55.41 222.15,25.37 34.81,53.58 77.63,-22.46 101.02,-47.3 10.9,-11.57 13.59,-50.64 31.7,-81.17 29.67,-50.01 21.93,-43.08 61.99,-90.67 42.04,-49.93 67.02,-85.6 127.47,-116.83 l 5.25,-2.37 c 27.35,-16.13 148.26,-86.22 180.25,-59.67 28.55,23.69 30.28,28.46 73,18.9 52,-11.65 52.31,-36.85 132.91,-38.6 16.68,-0.36 25,2.91 46.68,-1.23 7.02,-1.35 112.88,-0.64 117.27,0.66 39.51,11.74 77.72,15.19 118.49,9.26 36.88,-5.36 156.09,-46.89 170.23,-11.43 6.08,15.23 10.74,76.42 29.34,77.15 7.05,0.28 14.09,-38.48 45.5,-57.87 44.46,-27.45 64.15,-36.65 89.08,-45.17 z"
   id="path29"
   style="stroke:#000000;stroke-opacity:0.75;stroke-width:52.91666681;stroke-dasharray:none;fill:#0057b7;fill-opacity:1" />
  
  
  
  
  
  
  
  
  
  
  
  
  
  
  
  
  
  
  
  
  
  
  
  
  
  
 </g>
</svg>
